<svg width="24" height="24" viewBox="0 0 24 24" fill="none" xmlns="http://www.w3.org/2000/svg">
<g clip-path="url(#clip0_1318_3697)">
<mask id="mask0_1318_3697" style="mask-type:luminance" maskUnits="userSpaceOnUse" x="0" y="0" width="25" height="25">
<path d="M24.1001 0.101562H0.100098V24.1016H24.1001V0.101562Z" fill="white"/>
</mask>
<g mask="url(#mask0_1318_3697)">
<path d="M2.1001 4.10156V16.1016C2.1001 17.2016 3.0001 18.1016 4.1001 18.1016H18.1001L22.1001 22.1016V4.10156C22.1001 3.00156 21.2001 2.10156 20.1001 2.10156H4.1001C3.0001 2.10156 2.1001 3.00156 2.1001 4.10156ZM4.1001 4.10156H20.1001V18.1016L18.1001 16.1016H4.1001V4.10156Z" fill="#00B1EA"/>
</g>
<path d="M12.1001 6.10156C12.9001 6.10156 13.6001 6.80156 13.6001 7.60156C13.6001 8.40156 12.9001 9.10156 12.1001 9.10156C11.3001 9.10156 10.6001 8.40156 10.6001 7.60156C10.6001 6.80156 11.2001 6.10156 12.1001 6.10156ZM12.1001 13.5016C14.1001 13.5016 16.4001 14.5016 16.6001 15.0016H7.6001C7.8001 14.5016 10.1001 13.5016 12.1001 13.5016ZM12.1001 4.60156C10.5001 4.60156 9.1001 5.90156 9.1001 7.60156C9.1001 9.30156 10.4001 10.6016 12.1001 10.6016C13.8001 10.6016 15.1001 9.30156 15.1001 7.60156C15.1001 5.90156 13.7001 4.60156 12.1001 4.60156ZM12.1001 12.1016C10.1001 12.1016 6.1001 13.1016 6.1001 15.1016V16.6016H18.0001V15.0016C18.0001 13.1016 14.1001 12.1016 12.1001 12.1016Z" fill="#00B1EA"/>
</g>
<defs>
<clipPath id="clip0_1318_3697">
<rect width="24" height="24" fill="white"/>
</clipPath>
</defs>
</svg>
