<svg width="28" height="24" viewBox="0 0 28 24" fill="none" xmlns="http://www.w3.org/2000/svg">
<path d="M20.8281 23.3398C17.2656 23.3398 14.2969 20.4305 14.2969 16.8086C14.2969 13.1867 17.2063 10.2773 20.8281 10.2773C24.45 10.2773 27.3594 13.1867 27.3594 16.8086C27.3594 20.4305 24.45 23.3398 20.8281 23.3398ZM20.8281 11.4648C17.8594 11.4648 15.4844 13.8398 15.4844 16.8086C15.4844 19.7773 17.8594 22.1523 20.8281 22.1523C23.7969 22.1523 26.1719 19.7773 26.1719 16.8086C26.1719 13.8992 23.7969 11.4648 20.8281 11.4648Z" fill="#00B1EA"/>
<path d="M20.5313 19.6V19.125C19.9375 19.0062 19.4625 18.7687 19.0469 18.4125L19.6406 17.7C19.9969 18.0562 20.3531 18.175 20.5906 18.2937V17.3438C20.1156 17.225 19.7594 17.1063 19.5219 16.8688C19.2844 16.6313 19.1656 16.3937 19.1656 16.0375C19.1656 15.6812 19.2844 15.325 19.5219 15.0875C19.7594 14.85 20.1156 14.7313 20.4719 14.6125V14.375H21.1844V14.7312C21.6594 14.85 22.0156 14.9687 22.4906 15.325L21.8969 16.1562C21.6594 15.9187 21.3031 15.8 21.0656 15.8V16.75C21.5406 16.8688 21.8969 16.9875 22.1344 17.225C22.3719 17.4625 22.4906 17.7 22.4906 18.0563C22.4906 18.4125 22.3719 18.7687 22.1344 19.0062C21.8969 19.2437 21.5406 19.3625 21.0656 19.4812V19.9563H20.5313V19.6ZM20.5313 15.4437C20.4125 15.4437 20.2937 15.5625 20.2937 15.8C20.2937 16.0375 20.4125 16.1562 20.5313 16.1562V15.4437ZM21.5406 17.7594C21.5406 17.6406 21.5406 17.6406 21.4219 17.5219C21.4219 17.4031 21.3031 17.4031 21.1844 17.4031V18.2344C21.4219 18.1156 21.5406 17.9969 21.5406 17.7594Z" fill="#00B1EA"/>
<path d="M12.5156 6.00391C11.0312 6.00391 9.84375 4.81641 9.84375 3.33203C9.84375 1.84766 11.0312 0.660156 12.5156 0.660156C14 0.660156 15.1875 1.84766 15.1875 3.33203C15.1875 4.81641 13.9406 6.00391 12.5156 6.00391ZM12.5156 1.84766C11.6844 1.84766 11.0312 2.50078 11.0312 3.33203C11.0312 4.16328 11.6844 4.81641 12.5156 4.81641C13.3469 4.81641 14 4.16328 14 3.33203C14 2.50078 13.3469 1.84766 12.5156 1.84766Z" fill="#00B1EA"/>
<path d="M10.2593 15.8008C8.7749 15.8008 7.5874 14.6133 7.5874 13.1289C7.5874 11.6445 8.7749 10.457 10.2593 10.457C11.7437 10.457 12.9312 11.6445 12.9312 13.1289C12.9312 14.6133 11.7437 15.8008 10.2593 15.8008ZM10.2593 11.5852C9.42803 11.5852 8.7749 12.2383 8.7749 13.0695C8.7749 13.9008 9.42803 14.5539 10.2593 14.5539C11.0905 14.5539 11.7437 13.9008 11.7437 13.0695C11.7437 12.2383 11.0905 11.5852 10.2593 11.5852Z" fill="#00B1EA"/>
<path d="M3.90625 7.66797C2.125 7.66797 0.640625 6.18359 0.640625 4.40234C0.640625 2.62109 2.125 1.13672 3.90625 1.13672C5.6875 1.13672 7.17188 2.62109 7.17188 4.40234C7.17188 6.18359 5.6875 7.66797 3.90625 7.66797ZM3.90625 2.32422C2.77813 2.32422 1.82812 3.27422 1.82812 4.40234C1.82812 5.53047 2.77813 6.48047 3.90625 6.48047C5.03437 6.48047 5.98438 5.53047 5.98438 4.40234C5.98438 3.21484 5.03437 2.32422 3.90625 2.32422Z" fill="#00B1EA"/>
<path d="M16.0782 10.8742C14.8907 10.8742 13.8813 9.86484 13.8813 8.67734C13.8813 7.48984 14.8907 6.48047 16.0782 6.48047C17.3251 6.48047 18.2751 7.48984 18.2751 8.67734C18.2751 9.86484 17.3251 10.8742 16.0782 10.8742ZM16.0782 7.66797C15.4845 7.66797 15.0095 8.14297 15.0095 8.73672C15.0095 9.33047 15.4845 9.80547 16.0782 9.80547C16.672 9.80547 17.147 9.33047 17.147 8.73672C17.147 8.14297 16.672 7.66797 16.0782 7.66797Z" fill="#00B1EA"/>
</svg>
