<svg width="57" height="50" viewBox="0 0 57 50" fill="none" xmlns="http://www.w3.org/2000/svg">
<g clip-path="url(#clip0_1338_5642)">
<path d="M29.3024 37.9606C24.6857 37.9676 20.7425 37.3068 17.0673 35.4251C14.0175 33.864 11.4844 31.6952 10.279 28.3532C8.44282 23.2625 9.72378 18.7598 14.1975 15.3366C17.1539 13.074 20.5364 11.8363 24.1497 11.2693C29.1457 10.4853 34.0497 10.8661 38.7832 12.7856C41.4564 13.8693 43.8287 15.4136 45.713 17.6677C49.0199 21.6258 48.5402 27.4627 45.6635 31.1786C43.2006 34.3596 39.8525 36.0663 36.1003 37.073C33.6992 37.717 31.2486 37.9914 29.3038 37.962L29.3024 37.9606ZM10.2887 22.9391C10.1141 24.923 10.5965 26.6157 11.5779 28.1642C13.4223 31.075 16.1574 32.7999 19.2458 34.0124C23.3897 35.6393 27.6943 36.0313 32.0746 35.5315C35.8048 35.1058 39.3288 33.9998 42.4405 31.7778C44.6932 30.1677 46.4552 28.1614 47.0709 25.3346C47.2221 24.6388 47.1988 23.9037 47.273 22.9713C44.5846 23.8365 42.1354 24.6248 39.7109 25.4046C40.0421 27.4739 39.6326 27.9948 37.5242 28.4064C37.193 29.6679 36.6404 30.1411 35.3911 30.3133C35.1863 30.3413 34.9375 30.5037 34.8235 30.6802C34.3424 31.4236 33.6964 31.8072 32.8182 31.7988C32.645 31.7974 32.4223 31.8044 32.3069 31.9052C31.4149 32.6907 30.4432 32.5647 29.4701 32.1642C29.0894 32.0088 28.82 32.0284 28.4668 32.2427C27.4167 32.8797 26.3172 32.6277 25.52 31.6812C25.3468 31.4754 25.0238 31.313 24.7572 31.292C24.0782 31.2374 23.534 30.9924 23.0708 30.4813C22.9072 30.3021 22.642 30.1481 22.4069 30.1201C21.4916 30.0067 20.8346 29.5671 20.3962 28.734C20.2958 28.5436 20.0278 28.3616 19.8148 28.3308C18.6919 28.1642 17.9318 27.2639 18.0981 26.1327C18.1572 25.7266 18.05 25.5334 17.7312 25.3612C15.4263 24.1039 12.9124 23.5285 10.2914 22.9391H10.2887ZM24.0714 17.3247C23.6329 17.4297 23.3828 17.4605 23.1546 17.5487C21.7197 18.1003 20.2766 17.9897 18.8376 17.5949C17.9552 17.3527 17.0962 17.0167 16.2042 16.8263C15.4799 16.6709 14.8215 15.8602 14.0656 16.339C13.4223 16.7465 12.8946 17.3807 12.3943 17.9813C11.4116 19.1602 10.668 20.4791 10.3876 22.0598C10.7573 22.176 11.0776 22.2978 11.4074 22.3762C13.8141 22.9475 16.1987 23.5775 18.3703 24.8432C18.5008 24.9188 18.7455 24.9426 18.8609 24.8684C19.801 24.2621 20.6381 24.4414 21.4146 25.161C22.756 24.5884 23.266 24.6794 24.3861 25.6664C24.4768 25.7462 24.617 25.8022 24.7366 25.8064C26.5811 25.8694 27.0222 26.2433 27.3342 28.0452C28.0764 28.1586 28.8434 28.3756 29.1416 29.1233C29.4096 29.7939 29.4371 30.5653 29.5938 31.4222C30.204 31.6812 30.9792 31.9416 31.8176 31.3326C31.2101 30.6003 30.648 29.9241 30.0858 29.2465C30.1491 29.1863 30.2123 29.1261 30.2769 29.0658C30.4281 29.1513 30.6012 29.2129 30.7263 29.3277C31.2184 29.7813 31.6939 30.2517 32.1777 30.7138C32.667 31.1814 33.3432 31.1828 33.8449 30.718C34.2792 30.3161 34.2462 29.9899 33.6937 29.3515C33.2401 28.8264 32.7728 28.314 32.3289 27.7806C32.2052 27.6322 32.1433 27.4291 32.054 27.2513L32.2066 27.1253C32.3839 27.2527 32.5777 27.3605 32.7343 27.5089C33.2869 28.034 33.827 28.5702 34.3699 29.1051C34.976 29.7029 35.7801 29.7155 36.3917 29.1331C36.9222 28.6262 36.8755 28.0872 36.2103 27.3857C35.5423 26.6829 34.8496 26.0011 34.1844 25.2954C34.04 25.1428 33.959 24.9272 33.849 24.741C33.9026 24.6962 33.9562 24.6514 34.0098 24.6052C34.1871 24.7326 34.3768 24.846 34.539 24.9902C35.3622 25.728 36.1745 26.4813 37.0005 27.2177C37.5915 27.7442 38.4162 27.6896 38.8986 27.1127C39.2972 26.6353 39.1776 26.0081 38.566 25.4746C36.1855 23.4011 33.8105 21.322 31.4149 19.268C30.2892 18.302 29.4797 18.2166 28.218 18.988C27.3205 19.5368 26.5123 20.2369 25.6327 20.8193C24.5978 21.504 23.5079 21.4564 22.4441 20.8739C21.7788 20.5099 21.7129 19.9681 22.2214 19.394C22.7863 18.7556 23.358 18.1227 24.0755 17.3205L24.0714 17.3247ZM22.5032 19.9401C22.5293 20.0423 22.5568 20.1445 22.5829 20.2467C22.9375 20.3657 23.3154 20.6247 23.6425 20.5729C24.3188 20.4637 25.028 20.2943 25.6135 19.9541C26.5206 19.4262 27.3054 18.6842 28.196 18.1241C29.2626 17.4549 30.3387 17.6159 31.3421 18.3384C31.7338 18.6198 32.1213 18.9124 32.4869 19.2288C34.5417 21.0083 36.5978 22.7892 38.632 24.5926C38.9577 24.881 39.1982 24.8978 39.5913 24.748C41.2599 24.1151 42.9408 23.5145 44.63 22.9419C45.4477 22.6646 46.293 22.4756 47.1548 22.239C46.7521 20.0647 45.6113 18.3958 44.1475 16.9005C43.7187 16.4622 43.3586 16.4118 42.7869 16.6597C40.6826 17.5739 38.4725 17.9701 36.2185 17.4535C34.9595 17.1651 33.761 16.605 32.5323 16.1808C30.0941 15.3394 27.7012 15.2274 25.5764 16.9705C24.4796 17.8693 23.5216 18.9446 22.5018 19.9387L22.5032 19.9401ZM14.9933 15.6824C16.6385 16.1346 18.0968 16.6093 19.5866 16.9173C20.4388 17.0937 21.383 17.1819 22.2159 16.9901C23.637 16.6625 25.1737 16.5784 26.368 15.5438C26.3845 15.5298 26.4106 15.5284 26.4312 15.5186C28.8956 14.3705 31.3049 14.7541 33.6635 15.8392C35.5684 16.7143 37.5324 17.1469 39.6037 16.7787C40.6373 16.5952 41.6461 16.2592 42.7992 15.9582C36.3326 10.6281 22.7767 9.96862 14.9933 15.6824ZM20.7219 27.3801C21.0133 27.9696 21.1865 28.5814 21.5617 29.014C22.0441 29.5713 22.7121 29.3865 23.1175 29.1583C23.5024 29.6315 23.7525 30.1971 24.1648 30.3749C24.6005 30.5625 25.1888 30.3777 25.755 30.3539C26.0986 31.5314 26.7322 32.0508 27.6778 31.8142C28.464 31.6168 28.9341 30.9014 28.8186 30.0795C28.6757 29.0672 28.0146 28.7242 26.4312 28.881C26.5288 28.1586 26.8573 27.3773 26.1674 26.8019C25.5145 26.2559 24.83 26.3637 24.1415 26.9083C24.0205 26.1341 23.6645 25.5236 22.9333 25.553C22.3355 25.5782 21.75 25.9156 21.1425 26.1201C20.8016 25.3052 20.1776 24.9566 19.4726 25.2912C18.8843 25.5712 18.6149 26.2937 18.8788 26.8803C19.2114 27.6182 19.878 27.7638 20.7219 27.3759V27.3801Z" fill="#797979"/>
<path d="M10.2889 22.9375C12.9099 23.5283 15.4237 24.1024 17.7286 25.3597C18.0461 25.5333 18.1547 25.7265 18.0956 26.1311C17.9293 27.261 18.6894 28.1626 19.8123 28.3292C20.0253 28.3614 20.2933 28.5421 20.3936 28.7325C20.8321 29.5655 21.489 30.0038 22.4044 30.1186C22.6394 30.148 22.9061 30.3006 23.0683 30.4798C23.5314 30.9894 24.0757 31.2358 24.7547 31.2904C25.0213 31.3114 25.3443 31.4738 25.5175 31.6797C26.3146 32.6261 27.4142 32.8781 28.4642 32.2411C28.8175 32.0269 29.0868 32.0059 29.4676 32.1627C30.4407 32.5617 31.4137 32.6891 32.3044 31.9037C32.4198 31.8015 32.6425 31.7959 32.8157 31.7973C33.6939 31.8057 34.3399 31.422 34.8209 30.6786C34.935 30.5022 35.1838 30.3398 35.3886 30.3118C36.6379 30.141 37.1904 29.6663 37.5217 28.4049C39.63 27.9932 40.0396 27.4724 39.7084 25.4031C42.1329 24.6232 44.5834 23.835 47.2704 22.9697C47.1962 23.9022 47.2196 24.6372 47.0684 25.3331C46.4527 28.1598 44.692 30.1662 42.438 31.7763C39.3263 33.9982 35.8036 35.1043 32.0721 35.5299C27.6904 36.0297 23.3857 35.6377 19.2432 34.0108C16.1549 32.7983 13.4184 31.072 11.5753 28.1626C10.594 26.6141 10.1116 24.9214 10.2861 22.9375H10.2889Z" fill="white"/>
<path d="M24.0716 17.3263C23.3528 18.1286 22.7811 18.7614 22.2176 19.3998C21.709 19.9739 21.7764 20.5157 22.4402 20.8797C23.504 21.4622 24.5939 21.5098 25.6289 20.8251C26.5085 20.2427 27.3167 19.5426 28.2142 18.9938C29.4759 18.2224 30.2854 18.3078 31.4111 19.2738C33.8067 21.3292 36.1817 23.4069 38.5622 25.4804C39.1738 26.0139 39.2934 26.6411 38.8948 27.1185C38.4124 27.6968 37.5877 27.7514 36.9967 27.2235C36.1707 26.4871 35.3598 25.7352 34.5351 24.996C34.3729 24.8504 34.1833 24.7384 34.006 24.611C33.9524 24.6558 33.8988 24.7006 33.8452 24.7468C33.9551 24.933 34.0362 25.1486 34.1805 25.3012C34.8471 26.0069 35.5384 26.6873 36.2064 27.3915C36.8716 28.0916 36.9184 28.632 36.3878 29.1389C35.7762 29.7213 34.9722 29.7101 34.3661 29.1109C33.8232 28.576 33.283 28.0384 32.7305 27.5148C32.5738 27.3663 32.38 27.2585 32.2027 27.1311L32.0502 27.2571C32.1409 27.435 32.2014 27.638 32.3251 27.7864C32.769 28.3198 33.2363 28.8322 33.6898 29.3573C34.241 29.9957 34.2754 30.3219 33.841 30.7238C33.3394 31.1872 32.6632 31.1872 32.1739 30.7196C31.6901 30.2575 31.2145 29.7857 30.7225 29.3335C30.5974 29.2187 30.4242 29.1571 30.273 29.0717C30.2098 29.1319 30.1466 29.1921 30.082 29.2523C30.6441 29.9299 31.2063 30.6076 31.8138 31.3384C30.9754 31.9474 30.1988 31.687 29.59 31.428C29.4333 30.5712 29.4058 29.7997 29.1378 29.1291C28.8395 28.3814 28.074 28.163 27.3304 28.051C27.0184 26.2491 26.5786 25.8753 24.7327 25.8122C24.6132 25.808 24.473 25.752 24.3823 25.6722C23.2607 24.6852 22.7522 24.5928 21.4108 25.1668C20.6342 24.4472 19.7972 24.2679 18.8571 24.8742C18.7416 24.9484 18.4956 24.9246 18.3664 24.849C16.1948 23.5833 13.8102 22.9533 11.4036 22.382C11.0737 22.3036 10.7535 22.1818 10.3838 22.0656C10.6642 20.4849 11.4064 19.166 12.3904 17.9871C12.8921 17.3865 13.4185 16.7537 14.0617 16.3448C14.8177 15.866 15.476 16.6767 16.2003 16.8321C17.091 17.0225 17.9514 17.3585 18.8337 17.6007C20.2741 17.9955 21.7159 18.1048 23.1508 17.5545C23.3803 17.4663 23.6305 17.4355 24.0675 17.3305L24.0716 17.3263Z" fill="white"/>
<path d="M22.502 19.9391C23.5218 18.9436 24.4797 17.8697 25.5765 16.9709C27.7014 15.2278 30.0943 15.3398 32.5325 16.1812C33.7626 16.6054 34.9597 17.1655 36.2187 17.4539C38.4727 17.9705 40.6828 17.5743 42.787 16.66C43.3588 16.4122 43.7189 16.4626 44.1477 16.9009C45.6115 18.3962 46.7536 20.0651 47.1549 22.2394C46.2932 22.476 45.4465 22.665 44.6301 22.9423C42.941 23.5149 41.2601 24.1155 39.5915 24.7484C39.197 24.8982 38.9565 24.8814 38.6322 24.593C36.598 22.7882 34.5419 21.0087 32.4871 19.2292C32.1215 18.9128 31.7339 18.6202 31.3422 18.3388C30.3389 17.6177 29.2614 17.4553 28.1962 18.1245C27.3042 18.6846 26.5194 19.4266 25.6136 19.9545C25.0281 20.2947 24.3176 20.4641 23.6427 20.5733C23.3142 20.6265 22.9376 20.3661 22.583 20.2471C22.5569 20.1449 22.5294 20.0427 22.5033 19.9405L22.502 19.9391Z" fill="white"/>
<path d="M14.9932 15.6828C22.7765 9.96907 36.3324 10.6285 42.7991 15.9587C41.6459 16.2611 40.6371 16.5957 39.6036 16.7791C37.5323 17.1473 35.5669 16.7147 33.6633 15.8396C31.3062 14.756 28.8954 14.371 26.4311 15.519C26.4105 15.5288 26.383 15.5302 26.3679 15.5442C25.1735 16.5789 23.6369 16.6629 22.2157 16.9905C21.3842 17.1823 20.4386 17.0941 19.5865 16.9177C18.0966 16.6083 16.6383 16.1351 14.9932 15.6828Z" fill="white"/>
<path d="M20.7217 27.3798C19.8764 27.7662 19.2112 27.622 18.8786 26.8842C18.6134 26.2961 18.8827 25.5751 19.4724 25.2951C20.1774 24.959 20.8014 25.3077 21.1423 26.1239C21.7498 25.9195 22.3353 25.5821 22.9332 25.5569C23.6644 25.5261 24.0203 26.1379 24.1413 26.9122C24.8285 26.3675 25.5129 26.2597 26.1672 26.8058C26.8558 27.3812 26.5286 28.1625 26.4311 28.8849C28.0144 28.7267 28.6755 29.0697 28.8184 30.0834C28.9339 30.9052 28.4638 31.6207 27.6777 31.8181C26.7321 32.0547 26.0985 31.5353 25.7548 30.3578C25.1886 30.3816 24.6003 30.565 24.1646 30.3788C23.7523 30.201 23.5022 29.6353 23.1173 29.1621C22.7119 29.3903 22.0439 29.5751 21.5615 29.0179C21.1876 28.5853 21.0131 27.972 20.7217 27.384V27.3798Z" fill="white"/>
</g>
<defs>
<clipPath id="clip0_1338_5642">
<rect width="57" height="50" fill="white"/>
</clipPath>
</defs>
</svg>
