<svg width="190" height="164" viewBox="0 0 190 164" fill="none" xmlns="http://www.w3.org/2000/svg">
<g id="3_Recurso 55 2" clip-path="url(#clip0_560_2803)">
<g id="Capa 1">
<path id="Vector" d="M97.6755 124.506C82.2865 124.529 69.1425 122.362 56.8918 116.19C46.7257 111.069 38.2822 103.956 34.2643 92.994C28.1435 76.2964 32.4134 61.5276 47.3259 50.2994C57.1805 42.8783 68.4553 38.8187 80.4998 36.9588C97.1532 34.3871 113.5 35.6362 129.278 41.9323C138.189 45.4867 146.096 50.552 152.377 57.9456C163.4 70.928 161.801 90.0733 152.213 102.261C144.003 112.695 132.842 118.293 120.335 121.595C112.331 123.707 104.163 124.607 97.6801 124.511L97.6755 124.506ZM34.2963 75.2356C33.7145 81.7429 35.3226 87.2949 38.5937 92.374C44.7419 101.921 53.8589 107.579 64.1534 111.556C77.9663 116.892 92.3152 118.178 106.916 116.539C119.35 115.143 131.097 111.515 141.469 104.227C148.978 98.9456 154.851 92.3648 156.904 83.093C157.408 80.8106 157.33 78.3997 157.577 75.3412C148.616 78.1792 140.452 80.7647 132.37 83.3226C133.475 90.11 132.109 91.8184 125.081 93.1685C123.977 97.3061 122.136 98.8583 117.971 99.4232C117.288 99.515 116.459 100.048 116.079 100.626C114.475 103.065 112.322 104.323 109.395 104.296C108.817 104.291 108.075 104.314 107.69 104.645C104.717 107.221 101.478 106.808 98.2344 105.494C96.9654 104.984 96.0674 105.049 94.89 105.751C91.3898 107.841 87.7247 107.014 85.0675 103.91C84.4902 103.235 83.4136 102.702 82.5248 102.633C80.2616 102.454 78.4473 101.65 76.9034 99.9743C76.3582 99.3865 75.474 98.8813 74.6906 98.7895C71.6394 98.4175 69.4495 96.9755 67.988 94.2431C67.6535 93.6185 66.7602 93.0215 66.0501 92.9205C62.307 92.374 59.7735 89.4212 60.3279 85.7106C60.5249 84.3788 60.1675 83.7451 59.1046 83.1803C51.4216 79.0564 43.0422 77.1689 34.3055 75.2356H34.2963ZM80.2387 56.8205C78.7772 57.1649 77.9434 57.2659 77.1829 57.5553C72.3999 59.3646 67.5894 59.0018 62.7927 57.7068C59.8514 56.9123 56.988 55.8102 54.0147 55.1856C51.6003 54.6759 49.4058 52.0169 46.886 53.5875C44.7419 54.9239 42.9827 57.0042 41.315 58.9743C38.0393 62.841 35.5608 67.1669 34.6262 72.3516C35.8586 72.7328 36.9261 73.1323 38.0256 73.3895C46.0476 75.2631 53.9964 77.3297 61.235 81.4811C61.6702 81.7291 62.4857 81.8072 62.8706 81.5638C66.0042 79.5753 68.7943 80.1631 71.3828 82.5236C75.8543 80.6453 77.554 80.9438 81.2878 84.1814C81.5902 84.4431 82.0575 84.6268 82.4561 84.6406C88.6043 84.8473 90.0749 86.0734 91.1149 91.9837C93.5889 92.3557 96.1453 93.0675 97.1395 95.5197C98.0328 97.7195 98.1245 100.25 98.6467 103.06C100.681 103.91 103.265 104.764 106.059 102.766C104.034 100.365 102.161 98.1465 100.287 95.9239C100.498 95.7264 100.708 95.5289 100.924 95.3315C101.428 95.6116 102.005 95.8137 102.422 96.1902C104.062 97.6781 105.647 99.2211 107.26 100.737C108.891 102.27 111.145 102.275 112.817 100.75C114.265 99.4324 114.155 98.3624 112.313 96.2683C110.801 94.5462 109.244 92.8654 107.764 91.1157C107.351 90.629 107.145 89.9631 106.847 89.3798L107.356 88.9665C107.947 89.3844 108.593 89.738 109.115 90.2248C110.957 91.9469 112.757 93.7058 114.567 95.46C116.588 97.421 119.268 97.4623 121.306 95.5519C123.075 93.8895 122.919 92.1214 120.702 89.8207C118.475 87.5154 116.166 85.2789 113.949 82.9644C113.468 82.4639 113.197 81.7566 112.831 81.1459C113.009 80.9989 113.188 80.852 113.367 80.7004C113.958 81.1183 114.59 81.4903 115.131 81.9633C117.875 84.3834 120.582 86.8541 123.336 89.2696C125.306 90.9963 128.055 90.8172 129.663 88.9252C130.991 87.3592 130.593 85.3019 128.554 83.5522C120.619 76.751 112.702 69.9315 104.717 63.1946C100.965 60.0259 98.2665 59.7458 94.0608 62.2761C91.0691 64.0763 88.3752 66.3725 85.4431 68.2828C81.9933 70.5285 78.3603 70.3723 74.8143 68.4619C72.5969 67.268 72.377 65.4907 74.0721 63.6079C75.955 61.5138 77.8609 59.4381 80.2524 56.8067L80.2387 56.8205ZM75.0113 65.3989C75.0983 65.7341 75.19 66.0694 75.277 66.4046C76.459 66.7949 77.7189 67.6445 78.8093 67.4746C81.0633 67.1164 83.4273 66.5607 85.379 65.4448C88.4027 63.7135 91.0187 61.2796 93.9874 59.4427C97.5426 57.2476 101.13 57.7757 104.474 60.1453C105.78 61.0684 107.072 62.0281 108.291 63.066C115.14 68.9028 121.994 74.7442 128.774 80.6591C129.86 81.6051 130.662 81.6602 131.972 81.1688C137.534 79.0931 143.137 77.123 148.767 75.2448C151.493 74.3355 154.311 73.7155 157.183 72.9394C155.841 65.8076 152.038 60.3336 147.159 55.429C145.73 53.9916 144.53 53.8263 142.624 54.6391C135.61 57.6379 128.243 58.9375 120.729 57.243C116.533 56.297 112.538 54.46 108.442 53.0686C100.314 50.3086 92.3382 49.9412 85.2553 55.6586C81.5993 58.6069 78.4061 62.1338 75.0067 65.3943L75.0113 65.3989ZM49.9785 51.4337C55.4624 52.917 60.3233 54.4738 65.2895 55.4841C68.13 56.0628 71.2774 56.3521 74.0538 55.7229C78.7909 54.6483 83.9129 54.3728 87.8942 50.9791C87.9492 50.9332 88.0362 50.9286 88.1049 50.8964C96.3194 47.1307 104.351 48.389 112.212 51.9481C118.562 54.8182 125.109 56.2373 132.013 55.0295C135.458 54.4279 138.821 53.3257 142.665 52.3384C121.109 34.8555 75.923 32.6926 49.9785 51.4337ZM69.0738 89.8023C70.045 91.7357 70.6223 93.7425 71.873 95.1615C73.4811 96.9893 75.7076 96.3831 77.0592 95.6346C78.342 97.1867 79.1758 99.042 80.5502 99.6253C82.0025 100.241 83.9633 99.6344 85.8509 99.5564C86.9962 103.418 89.1083 105.122 92.2603 104.346C94.8808 103.699 96.4477 101.352 96.0628 98.6563C95.5864 95.3361 93.3827 94.2109 88.1049 94.7253C88.4302 92.3557 89.5252 89.7932 87.2253 87.9057C85.0491 86.1147 82.7676 86.4683 80.4723 88.2547C80.0691 85.7152 78.8826 83.713 76.4453 83.8094C74.4523 83.8921 72.5007 84.9988 70.4757 85.6693C69.3395 82.9966 67.2595 81.8531 64.9093 82.9506C62.9484 83.8691 62.0505 86.2387 62.9301 88.1629C64.0388 90.583 66.2608 91.0606 69.0738 89.7886V89.8023Z" fill="#10007D"/>
<path id="Vector_2" d="M34.2964 75.2355C43.0332 77.1735 51.4125 79.0563 59.0956 83.1802C60.1539 83.7496 60.5158 84.3834 60.3188 85.7106C59.7644 89.4165 62.298 92.374 66.041 92.9205C66.7511 93.0261 67.6445 93.6185 67.9789 94.243C69.4404 96.9755 71.6303 98.4128 74.6815 98.7894C75.4649 98.8858 76.3537 99.3864 76.8943 99.9742C78.4382 101.646 80.2525 102.454 82.5157 102.633C83.4045 102.702 84.4811 103.235 85.0584 103.91C87.7156 107.014 91.3807 107.841 94.8809 105.751C96.0583 105.049 96.9563 104.98 98.2253 105.494C101.469 106.803 104.713 107.221 107.681 104.645C108.066 104.309 108.808 104.291 109.386 104.296C112.313 104.323 114.466 103.065 116.07 100.626C116.45 100.048 117.279 99.515 117.962 99.4231C122.127 98.8629 123.968 97.3061 125.072 93.1684C132.1 91.8183 133.465 90.11 132.361 83.3226C140.443 80.7647 148.612 78.1792 157.568 75.3412C157.321 78.3996 157.399 80.8106 156.895 83.0929C154.842 92.3648 148.974 98.9455 141.46 104.227C131.088 111.515 119.346 115.143 106.907 116.539C92.3016 118.178 77.9526 116.892 64.1443 111.556C53.8498 107.579 44.7283 101.917 38.5846 92.374C35.3135 87.2949 33.7054 81.7428 34.2873 75.2355H34.2964Z" fill="#F7E000"/>
<path id="Vector_3" d="M80.2388 56.8251C77.8427 59.4565 75.9368 61.5322 74.0584 63.6263C72.3633 65.5091 72.5878 67.2863 74.8006 68.4803C78.3466 70.3907 81.9797 70.5468 85.4295 68.3012C88.3616 66.3908 91.0554 64.0947 94.0471 62.2945C98.2528 59.7641 100.951 60.0443 104.703 63.213C112.689 69.9544 120.606 76.7694 128.54 83.5706C130.579 85.3203 130.978 87.3776 129.649 88.9436C128.041 90.8402 125.292 91.0193 123.322 89.288C120.569 86.8724 117.866 84.4064 115.117 81.9817C114.576 81.5041 113.944 81.1367 113.353 80.7188C113.174 80.8657 112.996 81.0127 112.817 81.1642C113.184 81.775 113.454 82.4822 113.935 82.9828C116.157 85.2973 118.461 87.5292 120.688 89.8391C122.905 92.1352 123.061 93.9078 121.293 95.5703C119.254 97.4807 116.574 97.4439 114.553 95.4784C112.744 93.7242 110.943 91.9607 109.102 90.2432C108.579 89.7564 107.933 89.4028 107.342 88.9849L106.834 89.3982C107.136 89.9814 107.338 90.6473 107.75 91.1341C109.23 92.8838 110.788 94.5645 112.299 96.2867C114.137 98.3807 114.251 99.4507 112.803 100.769C111.131 102.289 108.877 102.289 107.246 100.755C105.633 99.2395 104.048 97.6919 102.408 96.2086C101.991 95.832 101.414 95.63 100.91 95.3498C100.699 95.5473 100.489 95.7448 100.273 95.9422C102.147 98.1649 104.021 100.388 106.046 102.785C103.251 104.782 100.663 103.928 98.6331 103.079C98.1108 100.268 98.0192 97.7378 97.1258 95.5381C96.1316 93.0858 93.5798 92.3694 91.1013 92.002C90.0613 86.0918 88.5952 84.8656 82.4424 84.659C82.0438 84.6452 81.5765 84.4615 81.2741 84.1997C77.5357 80.9622 75.8406 80.6591 71.3692 82.5419C68.7807 80.1815 65.9906 79.5937 62.8569 81.5821C62.4721 81.8255 61.652 81.7475 61.2213 81.4995C53.9827 77.348 46.034 75.2815 38.0119 73.4079C36.9124 73.1507 35.8449 72.7511 34.6125 72.37C35.5472 67.1853 38.0211 62.8594 41.3014 58.9926C42.9736 57.0225 44.7283 54.9468 46.8724 53.6059C49.3922 52.0353 51.5867 54.6942 54.0011 55.204C56.9698 55.8285 59.8378 56.9307 62.779 57.7252C67.5803 59.0202 72.3862 59.3784 77.1692 57.5736C77.9343 57.2843 78.7681 57.1833 80.225 56.8388L80.2388 56.8251Z" fill="white"/>
<path id="Vector_4" d="M75.0067 65.4034C78.4061 62.1383 81.5994 58.616 85.2553 55.6678C92.3382 49.9504 100.314 50.3177 108.442 53.0777C112.542 54.4692 116.533 56.3061 120.729 57.2521C128.243 58.9467 135.61 57.647 142.624 54.6483C144.53 53.8354 145.73 54.0008 147.159 55.4381C152.038 60.3427 155.846 65.8167 157.183 72.9486C154.311 73.7247 151.489 74.3446 148.767 75.2539C143.137 77.1321 137.534 79.1022 131.972 81.178C130.657 81.6693 129.855 81.6142 128.774 80.6682C121.994 74.7487 115.14 68.9119 108.291 63.0751C107.072 62.0373 105.78 61.0775 104.474 60.1544C101.13 57.7894 97.5381 57.2567 93.9875 59.4518C91.0141 61.2887 88.3982 63.7226 85.379 65.4539C83.4273 66.5699 81.0588 67.1255 78.8093 67.4837C77.7143 67.6582 76.459 66.8041 75.277 66.4137C75.19 66.0785 75.0983 65.7433 75.0113 65.408L75.0067 65.4034Z" fill="white"/>
<path id="Vector_5" d="M49.9785 51.4383C75.923 32.6972 121.109 34.8601 142.665 52.343C138.821 53.3349 135.458 54.4325 132.013 55.0341C125.109 56.2419 118.558 54.8228 112.212 51.9526C104.355 48.3982 96.3194 47.1353 88.105 50.901C88.0362 50.9332 87.9446 50.9378 87.8942 50.9837C83.913 54.3774 78.791 54.6529 74.0538 55.7275C71.282 56.3567 68.13 56.0673 65.2896 55.4887C60.3233 54.4738 55.4625 52.9216 49.9785 51.4383Z" fill="#F7E000"/>
<path id="Vector_6" d="M69.0739 89.8069C66.2563 91.0744 64.0389 90.6014 62.9302 88.1813C62.046 86.2525 62.9439 83.8875 64.9094 82.969C67.2596 81.8669 69.3396 83.0103 70.4758 85.6876C72.5007 85.0172 74.4524 83.9104 76.4453 83.8278C78.8826 83.7267 80.0692 85.7336 80.4724 88.2731C82.7631 86.4867 85.0446 86.1331 87.2254 87.9241C89.5207 89.8115 88.4303 92.374 88.105 94.7437C93.3828 94.2247 95.5864 95.3498 96.0629 98.6747C96.4478 101.37 94.8809 103.717 92.2604 104.365C89.1083 105.141 86.9963 103.437 85.851 99.5747C83.9634 99.6528 82.0026 100.254 80.5503 99.6436C79.1759 99.0604 78.342 97.2051 77.0592 95.6529C75.7077 96.4015 73.4812 97.0077 71.8731 95.1799C70.627 93.7609 70.0451 91.7495 69.0739 89.8207V89.8069Z" fill="white"/>
</g>
</g>
<defs>
<clipPath id="clip0_560_2803">
<rect width="190" height="164" fill="white"/>
</clipPath>
</defs>
</svg>
