

<svg width="240" height="120" xmlns="http://www.w3.org/2000/svg">
  <g transform="translate(0, 0)">
    <path id="icon1" d="M9 14C10.65 14 12 12.65 12 11C12 9.35 10.65 8 9 8C7.35 8 6 9.35 6 11C6 12.65 7.35 14 9 14ZM9 10C9.54 10 10 10.46 10 11C10 11.54 9.54 12 9 12C8.46 12 8 11.54 8 11C8 10.46 8.46 10 9 10Z" fill="#00B1EA"/>
  </g>
  <g transform="translate(30, 0)">
    <path id="icon2" d="M12 6C13.1 6 14 6.9 14 8C14 9.1 13.1 10 12 10C10.9 10 10 9.1 10 8C10 6.9 10.9 6 12 6ZM12 15C14.7 15 17.8 16.29 18 17V18H6V17.01C6.2 16.29 9.3 15 12 15ZM12 4C9.79 4 8 5.79 8 8C8 10.21 9.79 12 12 12C14.21 12 16 10.21 16 8C16 5.79 14.21 4 12 4ZM12 13C9.33 13 4 14.34 4 17V20H20V17C20 14.34 14.67 13 12 13Z" fill="#00B1EA"/>
  </g>
  <g transform="translate(60, 0)">
    <path id="icon3" d="M16.8999 22.4004H6.8999C5.1999 22.4004 3.8999 21.0004 3.8999 19.4004V6.90039H19.7999V19.5004C19.6999 21.1004 18.3999 22.4004 16.8999 22.4004ZM5.8999 8.90039V19.4004C5.8999 20.0004 6.3999 20.4004 6.8999 20.4004H16.8999C17.3999 20.4004 17.7999 20.0004 17.7999 19.5004V8.90039H5.8999Z" fill="#009EE3"/>
  </g>
  <g transform="translate(90, 0)">
    <g clip-path="url(#clip0_1150_2914)">
      <path id="icon4" d="M20 4H4C2.89 4 2.01 4.89 2.01 6L2 18C2 19.11 2.89 20 4 20H20C21.11 20 22 19.11 22 18V6C22 4.89 21.11 4 20 4ZM20 18H4V12H20V18ZM20 8H4V6H20V8Z" fill="#00B1EA"/>
    </g>
  </g>
  <g transform="translate(120, 0)">
    <path id="icon5" d="M12 12C10.9 12 10 11.1 10 10C10 8.9 10.9 8 12 8C13.1 8 14 8.9 14 10C14 11.1 13.1 12 12 12ZM18 10.2C18 6.57 15.4 18.2004 12 19.3004C8.6 18.2004 6 14.5004 6 10.5004V5.80039L12 3.50039L18 5.80039V10.5004Z" fill="#00B1EA"/>
  </g>
  <g transform="translate(150, 0)">
    <path id="icon6" d="M12 1.40039L4 4.40039V10.5004C4 15.5004 7.4 20.3004 12 21.4004C16.6 20.3004 20 15.5004 20 10.5004V4.40039L12 1.40039ZM18 10.5004C18 14.5004 15.4 18.2004 12 19.3004C8.6 18.2004 6 14.5004 6 10.5004V5.80039L12 3.50039L18 5.80039V10.5004Z" fill="#00B1EA"/>
    <path d="M12 8.40039C12.6 8.40039 13 8.90039 13 9.40039C13 9.90039 12.5 10.4004 12 10.4004C11.5 10.4004 11 9.90039 11 9.40039C11 8.90039 11.5 8.40039 12 8.40039ZM12 13.4004C13.4 13.4004 14.9 14.0004 15 14.4004H9C9.1 14.1004 10.7 13.4004 12 13.4004ZM12 7.40039C10.9 7.40039 10 8.30039 10 9.40039C10 10.5004 10.9 11.4004 12 11.4004C13.1 11.4004 14 10.5004 14 9.40039C14 8.30039 13.2 7.40039 12 7.40039ZM12 12.4004C10.7 12.4004 8 13.1004 8 14.4004V15.4004H16V14.4004C16.1 13.1004 13.4 12.4004 12 12.4004Z" fill="#00B1EA"/>
  </g>
  <g transform="translate(180, 0)">
    <g clip-path="url(#clip0_1157_2980)">
      <path id="icon7" d="M20 2H4C2.9 2 2 2.9 2 4V22L6 18H20C21.1 18 22 17.1 22 16V4C22 2.9 21.1 2 20 2ZM20 16H6L4 18V4H20V16Z" fill="#00B1EA"/>
    </g>
  </g>
  <g transform="translate(210, 0)">
    <path id="icon8" d="M12.5999 10.7992C10.7999 10.2992 10.2999 9.89922 10.2999 9.09922C10.2999 8.29922 11.0999 7.69922 12.3999 7.69922C13.7999 7.69922 14.2999 8.39922 14.2999 9.29922H15.9999C15.9999 7.99922 15.0999 6.69922 13.4999 6.29922V4.69922H11.1999V6.39922C9.6999 6.69922 8.4999 7.69922 8.4999 9.19922C8.4999 10.9992 9.9999 11.8992 12.1999 12.3992C14.0999 12.8992 14.4999 13.4992 14.4999 14.2992C14.4999 14.7992 14.0999 15.6992 12.3999 15.6992C10.7999 15.6992 10.1999 14.9992 10.0999 14.0992H8.3999C8.4999 15.7992 9.7999 16.7992 11.2999 17.0992V18.7992H13.5999V16.9992C15.0999 16.6992 16.2999 15.7992 16.2999 14.1992C16.2999 12.0992 14.3999 11.2992 12.5999 10.7992Z" fill="#00B1EA"/>
    <path d="M20.8002 14.8002C20.0002 17.1002 18.3002 18.8002 16.1002 19.9002C13.9002 20.9002 11.5002 21.0002 9.20018 20.2002C6.90018 19.4002 5.20018 17.7002 4.10018 15.5002C3.00018 13.3002 3.00018 10.8002 3.90018 8.60023C5.60018 3.90023 10.8002 1.60023 15.5002 3.30023C17.0002 3.80023 18.2002 4.80023 19.2002 5.90023L18.2002 6.70023L21.9002 7.80023L21.7002 4.00023L20.8002 4.70023C19.6002 3.20023 18.0002 2.10023 16.2002 1.40023C10.4002 -0.69977 4.10018 2.20023 2.00018 7.90023C1.00018 10.7002 1.10018 13.6002 2.30018 16.3002C3.60018 19.0002 5.80018 21.0002 8.50018 22.0002C9.70018 22.5002 11.0002 22.7002 12.3002 22.7002C13.9002 22.7002 15.4002 22.4002 16.9002 21.7002C19.6002 20.5002 21.6002 18.3002 22.6002 15.5002L20.8002 14.8002Z" fill="#00B1EA"/>
  </g>
  <g transform="translate(240, 0)">
    <path id="icon9" d="M0.589844 10.59L5.16984 6L0.589844 1.41L1.99984 0L7.99984 6L1.99984 12L0.589844 10.59Z" fill="#00B1EA"/>
  </g>
  <g clip-path="url(#clip0_1149_2872)">
<path id="icon10" d="M9.84375 5C9.84375 7.67514 7.67514 9.84375 5 9.84375C2.32486 9.84375 0.15625 7.67514 0.15625 5C0.15625 2.32486 2.32486 0.15625 5 0.15625C7.67514 0.15625 9.84375 2.32486 9.84375 5ZM4.43973 7.56473L8.03348 3.97098C8.15551 3.84895 8.15551 3.65107 8.03348 3.52904L7.59154 3.08711C7.46951 2.96506 7.27164 2.96506 7.14959 3.08711L4.21875 6.01793L2.85041 4.64959C2.72838 4.52756 2.53051 4.52756 2.40846 4.64959L1.96652 5.09152C1.84449 5.21355 1.84449 5.41143 1.96652 5.53346L3.99777 7.56471C4.11982 7.68676 4.31768 7.68676 4.43973 7.56473Z" fill="#32B105"/>
</g>
<defs>
<clipPath id="clip0_1149_2872">
<rect width="10" height="10" fill="white"/>
</clipPath>
</defs>
</svg>


