<svg width="363" height="160" viewBox="0 0 363 160" fill="none" xmlns="http://www.w3.org/2000/svg">
<g clip-path="url(#clip0_560_2731)">
<path d="M90.2242 120.154C77.2373 120.174 66.1448 118.353 55.8063 113.167C47.227 108.866 40.1014 102.89 36.7106 93.6806C31.5452 79.6528 35.1486 67.2454 47.7335 57.8125C56.0499 51.5779 65.5649 48.1674 75.7294 46.6049C89.7834 44.4444 103.578 45.4938 116.894 50.7832C124.414 53.7693 131.087 58.0247 136.388 64.2361C145.69 75.1427 144.341 91.2268 136.249 101.466C129.32 110.231 119.902 114.934 109.347 117.708C102.593 119.483 95.6989 120.239 90.2281 120.158L90.2242 120.154ZM36.7377 78.7616C36.2467 84.2284 37.6037 88.8927 40.3643 93.1597C45.5529 101.181 53.2468 105.934 61.9344 109.275C73.5913 113.758 85.7006 114.838 98.0225 113.461C108.516 112.288 118.429 109.24 127.182 103.117C133.519 98.6806 138.476 93.152 140.208 85.3626C140.633 83.4452 140.567 81.4198 140.776 78.8503C133.214 81.2346 126.324 83.4066 119.504 85.5555C120.436 91.2577 119.283 92.6929 113.352 93.8272C112.421 97.3032 110.866 98.6073 107.352 99.0818C106.776 99.159 106.076 99.6065 105.755 100.093C104.402 102.141 102.585 103.198 100.114 103.175C99.6271 103.171 99.0007 103.191 98.676 103.468C96.1667 105.633 93.4332 105.285 90.6959 104.182C89.6249 103.754 88.8671 103.808 87.8735 104.398C84.9196 106.154 81.8266 105.459 79.5841 102.851C79.097 102.284 78.1884 101.836 77.4383 101.779C75.5284 101.628 73.9973 100.953 72.6944 99.5447C72.2343 99.0509 71.4881 98.6265 70.8269 98.5494C68.252 98.2369 66.4039 97.0255 65.1705 94.7299C64.8883 94.2052 64.1344 93.7037 63.5351 93.6188C60.3763 93.1597 58.2382 90.679 58.706 87.5617C58.8723 86.4429 58.5707 85.9105 57.6737 85.436C51.1899 81.9714 44.1185 80.3858 36.7454 78.7616H36.7377ZM75.509 63.2909C74.2757 63.5802 73.572 63.6651 72.9302 63.9082C68.8938 65.4282 64.8342 65.1235 60.7861 64.0355C58.304 63.368 55.8875 62.4421 53.3783 61.9174C51.3407 61.4892 49.4888 59.2554 47.3623 60.5748C45.5529 61.6975 44.0682 63.4452 42.6609 65.1003C39.8965 68.3488 37.8048 71.983 37.0161 76.3387C38.0561 76.6589 38.9569 76.9946 39.8849 77.2106C46.6548 78.7847 53.3628 80.5208 59.4716 84.0085C59.8389 84.2168 60.5271 84.2824 60.8519 84.0779C63.4964 82.4074 65.851 82.9012 68.0355 84.8843C71.809 83.3063 73.2434 83.5571 76.3944 86.277C76.6496 86.4969 77.044 86.6512 77.3803 86.6628C82.5689 86.8364 83.81 87.8665 84.6876 92.8318C86.7755 93.1443 88.9329 93.7423 89.7718 95.8025C90.5258 97.6505 90.6031 99.7762 91.0439 102.137C92.7605 102.851 94.9411 103.569 97.2995 101.89C95.5906 99.8727 94.0093 98.0093 92.428 96.142C92.6058 95.9761 92.7837 95.8102 92.9654 95.6443C93.3907 95.8796 93.8779 96.0494 94.2297 96.3657C95.6138 97.6157 96.9516 98.912 98.3125 100.185C99.6889 101.474 101.591 101.478 103.002 100.197C104.224 99.0895 104.131 98.1906 102.577 96.4313C101.301 94.9846 99.9866 93.5725 98.7378 92.1026C98.3899 91.6937 98.2159 91.1343 97.9646 90.6443L98.3937 90.2971C98.8925 90.6481 99.4376 90.9452 99.8784 91.3542C101.433 92.8009 102.952 94.2785 104.479 95.7523C106.184 97.3997 108.446 97.4344 110.167 95.8295C111.659 94.4329 111.528 92.9475 109.656 91.0147C107.777 89.0779 105.829 87.1991 103.957 85.2546C103.551 84.8341 103.323 84.24 103.014 83.7268C103.165 83.6034 103.316 83.4799 103.466 83.3526C103.965 83.7037 104.499 84.0162 104.955 84.4136C107.271 86.4468 109.556 88.5224 111.879 90.5517C113.542 92.0023 115.862 91.8519 117.219 90.2623C118.34 88.9468 118.004 87.2184 116.283 85.7485C109.587 80.0347 102.906 74.3055 96.1667 68.6458C93.0002 65.9838 90.723 65.7485 87.1737 67.8742C84.649 69.3866 82.3756 71.3156 79.9012 72.9205C76.9898 74.8071 73.9238 74.6759 70.9313 73.071C69.06 72.0679 68.8744 70.5748 70.305 68.9931C71.894 67.2338 73.5024 65.49 75.5206 63.2793L75.509 63.2909ZM71.0976 70.4977C71.171 70.7793 71.2484 71.061 71.3218 71.3426C72.3193 71.6705 73.3826 72.3843 74.3027 72.2415C76.205 71.9406 78.2 71.4738 79.847 70.5363C82.3988 69.0818 84.6065 67.037 87.1118 65.4938C90.1121 63.6497 93.1394 64.0934 95.9618 66.0841C97.0637 66.8596 98.154 67.6659 99.1824 68.5378C104.963 73.4414 110.747 78.3488 116.469 83.3179C117.385 84.1127 118.062 84.159 119.167 83.7461C123.861 82.0023 128.59 80.3472 133.341 78.7693C135.642 78.0054 138.02 77.4846 140.444 76.8326C139.311 70.841 136.102 66.2423 131.984 62.1219C130.778 60.9143 129.765 60.7755 128.157 61.4583C122.237 63.9776 116.02 65.0694 109.679 63.6458C106.138 62.8511 102.767 61.3079 99.31 60.1389C92.4512 57.8202 85.72 57.5116 79.7426 62.3148C76.6573 64.7917 73.9625 67.7546 71.0937 70.4938L71.0976 70.4977ZM49.9721 58.7654C54.6 60.0116 58.7022 61.3194 62.8933 62.1682C65.2904 62.6543 67.9465 62.8974 70.2895 62.3688C74.2873 61.466 78.6098 61.2346 81.9696 58.3835C82.016 58.3449 82.0895 58.341 82.1475 58.314C89.0798 55.1505 95.8574 56.2076 102.492 59.1975C107.851 61.6088 113.376 62.8009 119.202 61.7863C122.11 61.2809 124.948 60.3549 128.191 59.5255C110 44.838 71.867 43.0208 49.9721 58.7654ZM66.0868 90.9992C66.9065 92.6235 67.3936 94.3094 68.4492 95.5015C69.8062 97.037 71.6853 96.5278 72.8258 95.8989C73.9084 97.2029 74.612 98.7616 75.7719 99.2515C76.9976 99.7685 78.6523 99.2593 80.2453 99.1937C81.2118 102.438 82.9942 103.87 85.6542 103.218C87.8658 102.674 89.188 100.702 88.8633 98.4375C88.4612 95.6481 86.6015 94.7029 82.1475 95.135C82.422 93.1443 83.346 90.9915 81.4052 89.4059C79.5687 87.9012 77.6432 88.1983 75.7062 89.6991C75.366 87.5656 74.3646 85.8835 72.3077 85.9645C70.6259 86.034 68.9788 86.9637 67.2699 87.527C66.3111 85.2816 64.5558 84.321 62.5724 85.243C60.9176 86.0147 60.1598 88.0054 60.9021 89.6219C61.8378 91.6551 63.7129 92.0563 66.0868 90.9876V90.9992Z" fill="#10007D"/>
<path d="M207.76 112.824C209.682 112.824 211.352 112.793 213.018 112.847C213.416 112.859 213.873 113.075 214.19 113.329C216.571 115.262 218.373 115.644 220.291 114.564C222.363 113.395 223.477 110.675 222.986 107.778C222.746 107.901 222.514 107.963 222.355 108.11C218.129 111.921 212.233 111.13 209.109 106.323C206.059 101.628 206.372 93.8195 209.786 89.3904C211.858 86.7014 217.577 85.4553 221.783 86.7786C226.419 88.2369 228.82 91.5239 228.924 96.794C229.005 100.903 229.04 105.019 228.924 109.128C228.684 117.724 221.764 122.319 213.656 119.363C210.656 118.272 208.804 116.157 207.756 112.824H207.76ZM212.655 98.3102C212.848 99.8033 212.902 100.833 213.126 101.825C213.749 104.591 215.106 105.729 217.743 105.826C220.039 105.91 221.942 104.645 222.641 102.272C223.5 99.3711 223.523 96.4661 222.042 93.6921C221.134 91.9908 219.691 91.169 217.801 91.2269C215.922 91.2847 214.395 92.1142 213.745 93.9236C213.192 95.4668 212.941 97.1181 212.655 98.3102Z" fill="#0B0080"/>
<path d="M193.068 76.7747H187.775C187.775 76.0725 187.775 75.4012 187.775 74.7299C187.775 70.7446 187.787 66.7554 187.775 62.7701C187.763 59.973 186.217 58.3603 183.572 58.3333C180.92 58.3063 179.18 60.0617 179.172 62.8279C179.157 67.392 179.169 71.9522 179.169 76.6821H173.93C173.903 76.0918 173.841 75.4167 173.841 74.7454C173.833 70.76 173.856 66.7708 173.829 62.7855C173.81 60.0309 172.171 58.3411 169.592 58.3372C166.955 58.3333 165.258 59.9228 165.219 62.6582C165.153 67.2762 165.2 71.8982 165.2 76.686H160.069C160.007 76.4352 159.903 76.1999 159.903 75.9607C159.903 71.2693 159.798 66.5702 159.961 61.8827C160.092 58.1211 161.906 55.2353 165.47 53.7539C168.907 52.3264 172.287 52.4961 175.271 54.9306C176.145 55.6443 176.679 55.9414 177.684 55.0733C180.599 52.5617 184.005 52.3032 187.466 53.6304C191.193 55.0579 192.867 58.1636 193.022 61.9329C193.219 66.8056 193.068 71.6898 193.068 76.7747Z" fill="#0B0080"/>
<path d="M300.037 55.9606C300.037 54.1937 300.01 52.4267 300.041 50.6597C300.107 46.8943 301.87 45.3935 305.713 45.7832C305.786 45.8873 305.918 45.9915 305.918 46.0957C305.937 53.4761 306.154 60.8603 305.891 68.2292C305.67 74.3788 299.875 78.2176 293.062 77.1759C286.791 76.2153 283.791 72.7469 283.582 66.3812C283.486 63.4413 283.888 60.6713 285.198 57.99C287.8 52.6504 295.494 50.8758 300.033 55.9568L300.037 55.9606ZM300.636 65.5362C300.064 63.7384 299.674 61.8557 298.87 60.1659C298.007 58.3526 296.202 57.8935 294.292 58.0131C292.552 58.1211 291.28 58.9622 290.538 60.5671C289.142 63.5841 289.099 66.6281 290.398 69.6682C291.311 71.8017 293.202 72.8241 295.506 72.5347C298.409 72.1682 300.265 69.4869 300.636 65.5362Z" fill="#0B0080"/>
<path d="M165.687 107.508C165.687 109.765 165.687 111.725 165.687 113.688C165.687 117.377 164.832 118.225 161.171 118.187C160.85 118.187 160.529 118.16 159.876 118.129C159.876 117.519 159.876 116.914 159.876 116.308C159.876 110.069 160.042 103.831 159.841 97.6003C159.605 90.2893 164.202 86.304 171.846 86.4005C179.915 86.5008 182.996 94.1319 182.13 100.428C181.601 104.275 180.398 107.851 176.563 109.78C172.936 111.605 169.298 110.976 166.541 108.11C166.383 107.948 166.162 107.843 165.679 107.508H165.687ZM176.601 98.3912C176.029 96.7361 175.693 94.8611 174.78 93.3218C173.153 90.5748 168.443 90.625 166.932 93.3912C165.13 96.6782 164.964 100.185 166.87 103.507C168.741 106.771 173.547 106.605 175.213 103.225C175.902 101.833 176.103 100.201 176.601 98.3912Z" fill="#0B0080"/>
<path d="M331.602 65.1852C331.497 74.8457 323.854 79.429 314.969 76.4622C310.376 74.9267 307.333 68.9429 308.125 63.4684C309.428 54.5023 315.982 51.3426 323.765 53.2755C328.656 54.4907 331.633 59.2053 331.602 65.1891V65.1852ZM325.733 65.162C325.636 65.1428 325.539 65.1273 325.443 65.108C325.443 64.402 325.508 63.6883 325.431 62.9938C325.099 59.9691 323.069 57.8704 320.293 57.6312C317.478 57.3843 315 59.0201 314.544 62.1335C314.203 64.4483 314.424 66.9792 315.004 69.2593C315.576 71.5008 317.598 72.4846 319.96 72.4499C322.249 72.4151 323.939 71.3465 324.758 69.2284C325.257 67.9398 325.419 66.5278 325.733 65.1698V65.162Z" fill="#0B0080"/>
<path d="M218.574 66.6088C214.696 66.6088 210.911 66.6088 207.13 66.6088C206.097 66.6088 205.065 66.6744 204.037 66.5972C200.862 66.358 201.442 67.473 202.332 69.4869C203.604 72.3688 207.656 73.8194 210.362 71.9483C212.875 70.2122 215.373 71.0725 218.087 70.7176C217.221 73.5224 215.334 75.0424 213.049 76.2075C208.131 78.723 201.033 77.1643 197.851 72.8665C193.033 66.3619 196.428 55.2199 204.052 53.395C212.833 51.2924 219.405 56.6396 218.574 66.6088ZM212.516 62.8395C212.608 60.8488 211.881 59.3596 210.261 58.4452C208.212 57.2878 206.032 57.2261 204.095 58.6304C202.761 59.5988 201.887 60.9838 202.046 62.8395H212.512H212.516Z" fill="#0B0080"/>
<path d="M255.06 98.5378C254.995 108.437 247.347 112.724 238.745 110.05C234.063 108.596 230.904 102.789 231.534 97.2762C232.516 88.669 239.611 84.1782 247.834 86.956C252.319 88.4722 255.057 92.8588 255.064 98.5378H255.06ZM249.014 98.8079C248.944 97.8163 248.956 96.9714 248.82 96.1535C248.318 93.1289 246.35 91.2693 243.597 91.1458C240.651 91.0147 238.52 92.5849 237.937 95.7677C237.612 97.5463 237.616 99.483 237.948 101.258C238.544 104.433 240.361 105.856 243.175 105.887C246.087 105.918 247.958 104.414 248.727 101.316C248.94 100.455 248.936 99.5409 249.014 98.804V98.8079Z" fill="#0B0080"/>
<path d="M190.234 94.294C188.861 94.294 187.45 94.2978 186.035 94.294C185.722 94.294 185.409 94.2515 185.107 94.2322C184.984 90.2778 187.493 87.4035 191.881 86.7245C194.823 86.2693 197.769 86.4352 200.611 87.5733C203.016 88.5378 204.365 90.2122 204.392 92.8202C204.431 96.1574 204.431 99.4984 204.4 102.836C204.373 105.976 202.838 108.283 200.027 109.514C196.335 111.134 192.418 111.439 188.529 110.328C185.637 109.502 184.071 107.106 184.04 104.074C184.009 101.061 185.536 98.5069 188.274 97.5926C190.203 96.9483 192.264 96.6975 194.27 96.2808C195.21 96.0879 196.285 96.1381 197.062 95.679C197.762 95.2662 198.539 94.3017 198.535 93.5841C198.535 92.8781 197.704 91.7168 197.043 91.5509C193.814 90.76 191.726 90.6674 190.234 94.294ZM198.442 99.0818C196.389 99.5525 194.305 99.9267 192.287 100.521C190.396 101.076 189.611 102.488 190.029 104.414C190.404 106.146 191.68 106.701 193.35 106.667C196.347 106.601 199.594 104.714 198.442 99.0856V99.0818Z" fill="#0B0080"/>
<path d="M261.703 60.6983C262.619 55.4668 265.148 53.071 270.085 53.0633C272.664 53.0594 275.304 53.5069 277.802 54.1821C280.249 54.8418 281.251 56.9367 281.289 59.3904C281.34 62.6659 281.336 65.9413 281.286 69.2168C281.239 72.2608 279.778 74.5177 277.048 75.7986C273.437 77.4923 269.609 77.7739 265.755 76.848C262.901 76.1613 261.192 73.9583 260.926 71.0571C260.651 68.0633 261.931 65.3279 264.602 64.2631C266.656 63.4452 268.925 63.1751 271.102 62.6659C272.219 62.4035 273.418 62.3264 274.438 61.8557C275.997 61.1381 275.985 58.9892 274.535 58.0864C272.351 56.7284 268.875 57.6312 267.518 59.838C267.274 60.2353 266.694 60.6288 266.242 60.6597C264.776 60.7639 263.3 60.6983 261.703 60.6983ZM275.382 65.4552C273.464 65.8951 271.535 66.2847 269.633 66.7863C267.417 67.3688 266.396 68.9467 266.876 70.8603C267.321 72.6196 268.987 73.4452 271.187 72.9977C274.678 72.2839 275.962 69.9923 275.382 65.4591V65.4552Z" fill="#0B0080"/>
<path d="M258.687 61.4197H252.547C251.979 59.4599 250.881 57.9552 248.526 57.7971C246.149 57.6389 243.999 58.7577 243.492 61.0687C243.025 63.2176 242.874 65.5092 243.055 67.7006C243.307 70.7523 244.919 72.2492 247.436 72.4267C250.332 72.6312 251.403 71.8248 252.578 68.4028H258.428C258.374 72.5617 254.743 76.5972 250.173 77.1489C243.844 77.9128 239.386 76.358 237.275 70.6481C235.284 65.2662 236.378 57.8125 241.358 54.6798C245.066 52.3495 251.936 52.3688 255.486 54.9768C257.589 56.52 258.416 58.7847 258.691 61.4159L258.687 61.4197Z" fill="#0B0080"/>
<path d="M227.656 76.7554H222.228C222.228 71.5779 221.744 66.4159 222.359 61.3889C223.04 55.814 228.688 52.4769 234.998 53.1713V58.642C234.743 58.7076 234.561 58.7886 234.38 58.7963C229.129 59.0471 227.699 60.5054 227.664 65.7485C227.637 69.3403 227.66 72.9321 227.66 76.7593L227.656 76.7554Z" fill="#0B0080"/>
<path d="M36.7376 78.7616C44.1107 80.3897 51.1822 81.9714 57.666 85.436C58.5591 85.9143 58.8645 86.4468 58.6983 87.5617C58.2304 90.6752 60.3685 93.1597 63.5273 93.6188C64.1266 93.7076 64.8805 94.2052 65.1627 94.7299C66.3961 97.0255 68.2442 98.233 70.8191 98.5494C71.4803 98.6304 72.2303 99.0509 72.6866 99.5447C73.9895 100.949 75.5206 101.628 77.4305 101.779C78.1806 101.836 79.0892 102.284 79.5763 102.851C81.8188 105.459 84.9118 106.154 87.8657 104.398C88.8593 103.808 89.6171 103.75 90.6881 104.182C93.4254 105.282 96.1628 105.633 98.6682 103.468C98.9929 103.187 99.6193 103.171 100.106 103.175C102.577 103.198 104.394 102.141 105.747 100.093C106.068 99.6065 106.768 99.1589 107.344 99.0818C110.859 98.6111 112.413 97.3032 113.345 93.8272C119.276 92.6929 120.428 91.2577 119.496 85.5555C126.316 83.4066 133.21 81.2346 140.768 78.8503C140.56 81.4197 140.625 83.4452 140.2 85.3626C138.468 93.152 133.515 98.6805 127.174 103.117C118.421 109.24 108.512 112.288 98.0148 113.461C85.689 114.838 73.5797 113.758 61.9266 109.275C53.239 105.934 45.5412 101.177 40.3565 93.1597C37.5959 88.8927 36.2389 84.2284 36.7299 78.7616H36.7376Z" fill="#00BBFE"/>
<path d="M75.5091 63.2947C73.487 65.5054 71.8786 67.2492 70.2934 69.0085C68.8629 70.5903 69.0523 72.0833 70.9198 73.0864C73.9123 74.6913 76.9783 74.8225 79.8896 72.9359C82.3641 71.331 84.6374 69.402 87.1621 67.8896C90.7114 65.7639 92.9887 65.9992 96.1552 68.6612C102.894 74.3248 109.575 80.0501 116.272 85.7639C117.992 87.2338 118.328 88.9622 117.207 90.2778C115.85 91.8711 113.53 92.0216 111.868 90.5671C109.544 88.5378 107.263 86.466 104.943 84.429C104.487 84.0278 103.954 83.7191 103.455 83.368C103.304 83.4915 103.153 83.615 103.002 83.7423C103.312 84.2554 103.54 84.8495 103.946 85.27C105.821 87.2145 107.766 89.0895 109.645 91.0301C111.516 92.9591 111.647 94.4483 110.155 95.8449C108.435 97.4498 106.173 97.419 104.468 95.7677C102.941 94.294 101.421 92.8125 99.8668 91.3696C99.4261 90.9606 98.8809 90.6636 98.3822 90.3125L97.953 90.6597C98.2082 91.1497 98.3783 91.7091 98.7263 92.118C99.9751 93.5879 101.29 95 102.566 96.4467C104.116 98.206 104.213 99.1049 102.991 100.212C101.58 101.489 99.6774 101.489 98.301 100.201C96.94 98.9274 95.6023 97.6273 94.2182 96.3812C93.8663 96.0648 93.3792 95.895 92.9539 95.6597C92.776 95.8256 92.5982 95.9915 92.4165 96.1574C93.9978 98.0247 95.5791 99.892 97.288 101.906C94.9296 103.584 92.7451 102.866 91.0323 102.153C90.5915 99.7916 90.5142 97.6659 89.7603 95.8179C88.9213 93.7577 86.7678 93.1558 84.6761 92.8472C83.7984 87.8819 82.5612 86.8518 77.3688 86.6782C77.0324 86.6666 76.638 86.5123 76.3829 86.2924C73.228 83.5725 71.7974 83.3179 68.0239 84.8997C65.8394 82.9166 63.4849 82.4228 60.8403 84.0933C60.5155 84.2978 59.8235 84.2322 59.46 84.0239C53.3513 80.5362 46.6432 78.8001 39.8733 77.2261C38.9454 77.01 38.0446 76.6744 37.0045 76.3541C37.7932 71.9984 39.881 68.3642 42.6493 65.1157C44.0605 63.4606 45.5413 61.7168 47.3508 60.5903C49.4772 59.2708 51.3292 61.5046 53.3667 61.9329C55.8721 62.4575 58.2924 63.3835 60.7746 64.0509C64.8265 65.1389 68.8822 65.4398 72.9187 63.9236C73.5643 63.6805 74.268 63.5957 75.4975 63.3063L75.5091 63.2947Z" fill="white"/>
<path d="M71.0938 70.5015C73.9626 67.7585 76.6574 64.7994 79.7427 62.3225C85.72 57.5193 92.4512 57.8279 99.3101 60.1466C102.77 61.3156 106.138 62.8588 109.68 63.6535C116.02 65.0772 122.237 63.9853 128.157 61.466C129.765 60.7832 130.778 60.9221 131.984 62.1296C136.102 66.25 139.315 70.8488 140.444 76.8403C138.02 77.4923 135.638 78.0131 133.341 78.777C128.59 80.3549 123.861 82.01 119.167 83.7539C118.058 84.1667 117.381 84.1204 116.469 83.3256C110.747 78.3526 104.963 73.4491 99.1825 68.5455C98.154 67.6736 97.0637 66.8673 95.9618 66.0918C93.1394 64.1049 90.1083 63.6574 87.1119 65.5015C84.6026 67.0447 82.395 69.0895 79.8471 70.544C78.2 71.4815 76.2011 71.9483 74.3028 72.2492C73.3787 72.3958 72.3194 71.6782 71.3219 71.3503C71.2484 71.0687 71.1711 70.787 71.0976 70.5054L71.0938 70.5015Z" fill="white"/>
<path d="M49.972 58.7693C71.867 43.0247 110 44.8418 128.191 59.5293C124.948 60.3627 122.11 61.2847 119.202 61.7901C113.376 62.8048 107.847 61.6127 102.492 59.2014C95.8613 56.2153 89.0798 55.1543 82.1475 58.3179C82.0895 58.3449 82.0121 58.3488 81.9696 58.3873C78.6098 61.2384 74.2873 61.4699 70.2895 62.3727C67.9504 62.9012 65.2904 62.6582 62.8932 62.1721C58.7022 61.3194 54.6 60.0154 49.972 58.7693Z" fill="#00BBFE"/>
<path d="M66.0869 91.0031C63.7091 92.0679 61.8378 91.6705 60.9021 89.6373C60.1559 88.017 60.9137 86.0301 62.5724 85.2585C64.5558 84.3326 66.3111 85.2932 67.27 87.5424C68.9789 86.9792 70.6259 86.0494 72.3078 85.9799C74.3646 85.8951 75.366 87.581 75.7062 89.7145C77.6394 88.2137 79.5648 87.9167 81.4052 89.4213C83.3422 91.0069 82.422 93.1597 82.1475 95.1505C86.6015 94.7145 88.4612 95.6597 88.8633 98.4529C89.1881 100.718 87.8658 102.689 85.6542 103.233C82.9942 103.885 81.2119 102.454 80.2453 99.2091C78.6524 99.2747 76.9976 99.7801 75.772 99.267C74.6121 98.777 73.9084 97.2184 72.8258 95.9144C71.6853 96.5432 69.8062 97.0525 68.4492 95.517C67.3975 94.3248 66.9065 92.635 66.0869 91.0147V91.0031Z" fill="white"/>
<path d="M212.655 98.3102C212.941 97.1181 213.192 95.4668 213.745 93.9236C214.391 92.1142 215.922 91.2847 217.801 91.2269C219.691 91.169 221.13 91.9869 222.042 93.6921C223.527 96.4661 223.5 99.375 222.641 102.272C221.942 104.645 220.039 105.91 217.743 105.826C215.106 105.729 213.749 104.587 213.126 101.825C212.902 100.833 212.848 99.8033 212.655 98.3102Z" fill="white"/>
<path d="M300.636 65.5363C300.265 69.4869 298.409 72.1682 295.506 72.5347C293.202 72.8279 291.311 71.8056 290.398 69.6682C289.095 66.6281 289.142 63.5841 290.538 60.5671C291.28 58.9622 292.552 58.1211 294.292 58.0131C296.202 57.8935 298.007 58.3526 298.87 60.1659C299.674 61.8557 300.064 63.7384 300.636 65.5363Z" fill="white"/>
<path d="M176.601 98.3874C176.099 100.197 175.898 101.829 175.213 103.221C173.547 106.601 168.741 106.767 166.87 103.503C164.964 100.181 165.134 96.6744 166.932 93.3874C168.447 90.6212 173.157 90.571 174.78 93.3179C175.689 94.8534 176.029 96.7284 176.601 98.3874Z" fill="white"/>
<path d="M325.733 65.162C325.419 66.5201 325.257 67.936 324.758 69.2207C323.939 71.3387 322.249 72.4074 319.96 72.4421C317.602 72.4807 315.576 71.4969 315.004 69.2516C314.424 66.9715 314.203 64.4406 314.544 62.1258C315 59.0124 317.478 57.3804 320.293 57.6235C323.069 57.8665 325.099 59.9614 325.431 62.9861C325.508 63.6844 325.443 64.3943 325.443 65.1003C325.539 65.1196 325.636 65.135 325.733 65.1543V65.162Z" fill="white"/>
<path d="M212.516 62.8356H202.05C201.891 60.9799 202.765 59.591 204.099 58.6265C206.036 57.2261 208.216 57.2878 210.265 58.4413C211.885 59.3557 212.612 60.841 212.519 62.8356H212.516Z" fill="white"/>
<path d="M249.017 98.8078C248.94 99.5447 248.944 100.459 248.731 101.319C247.962 104.417 246.091 105.922 243.179 105.891C240.365 105.86 238.547 104.433 237.952 101.262C237.62 99.4869 237.616 97.5501 237.94 95.7716C238.524 92.5887 240.655 91.0146 243.601 91.1497C246.354 91.2731 248.321 93.1327 248.824 96.1574C248.959 96.9753 248.952 97.8163 249.017 98.8117V98.8078Z" fill="white"/>
<path d="M198.442 99.0818C199.598 104.711 196.35 106.597 193.35 106.663C191.68 106.701 190.404 106.142 190.029 104.41C189.612 102.485 190.396 101.073 192.287 100.517C194.305 99.9229 196.385 99.5486 198.442 99.0779V99.0818Z" fill="white"/>
<path d="M275.382 65.4552C275.962 69.9884 274.682 72.2801 271.187 72.9938C268.987 73.4414 267.32 72.6157 266.876 70.8565C266.393 68.9429 267.417 67.3688 269.632 66.7824C271.535 66.2809 273.464 65.8912 275.382 65.4514V65.4552Z" fill="white"/>
</g>
<defs>
<clipPath id="clip0_560_2731">
<rect width="363" height="160" fill="white"/>
</clipPath>
</defs>
</svg>
