<svg width="24" height="24" viewBox="0 0 24 24" fill="none" xmlns="http://www.w3.org/2000/svg">
<g clip-path="url(#clip0_769_2061)">
<path d="M23.5 18H0.5V17H23V6H10.5V5H23.5C23.8 5 24 5.2 24 5.5V17.5C24 17.8 23.8 18 23.5 18Z" fill="#BFBFBF"/>
<path d="M3.5 18.0009C3.4 18.0009 3.35 18.0009 3.25 17.9509C3.1 17.8509 3 17.7009 3 17.5009V5.50089C3 5.35089 3.1 5.20089 3.2 5.10089L10.2 0.100889C10.4 -0.0491115 10.75 0.000888541 10.9 0.200889C10.95 0.300889 11 0.400889 11 0.500889V12.5009C11 12.6509 10.9 12.8009 10.8 12.9009L3.8 17.9009C3.7 17.9509 3.6 18.0009 3.5 18.0009ZM4 5.75089V16.5009L10 12.2009V1.45089L4 5.75089Z" fill="#BFBFBF"/>
<path d="M24 23H16.5V24H24V23Z" fill="#BFBFBF"/>
<path d="M15.5 23H0V24H15.5V23Z" fill="#BFBFBF"/>
<path d="M24 21H6.5V22H24V21Z" fill="#BFBFBF"/>
<path d="M5.5 21H0V22H5.5V21Z" fill="#BFBFBF"/>
<path d="M24 19H20V20H24V19Z" fill="#BFBFBF"/>
<path d="M19 19H0V20H19V19Z" fill="#BFBFBF"/>
<path d="M17 8.5H12V9.5H17V8.5Z" fill="#BFBFBF"/>
<path d="M17 11H12V12H17V11Z" fill="#BFBFBF"/>
<path d="M15 13.5H12V14.5H15V13.5Z" fill="#BFBFBF"/>
<path d="M3.5 18H0.5C0.2 18 0 17.8 0 17.5V5.5C0 5.2 0.2 5 0.5 5H3.5C3.8 5 4 5.2 4 5.5V17.5C4 17.8 3.8 18 3.5 18ZM1 17H3V6H1V17Z" fill="#BFBFBF"/>
</g>
<defs>
<clipPath id="clip0_769_2061">
<rect width="24" height="24" fill="white"/>
</clipPath>
</defs>
</svg>
