<svg width="24" height="24" viewBox="0 0 24 24" fill="none" xmlns="http://www.w3.org/2000/svg">
<path d="M12.3749 21.375H5.62493C5.02819 21.375 4.4559 21.1379 4.03394 20.716C3.61198 20.294 3.37493 19.7217 3.37493 19.125V16.1512L2.62493 10.5712C2.62307 10.5551 2.62307 10.5387 2.62493 10.5225V7.875C2.62493 7.27826 2.86198 6.70597 3.28394 6.28401C3.7059 5.86205 4.27819 5.625 4.87493 5.625H5.99993C6.09939 5.625 6.19477 5.66451 6.26509 5.73484C6.33542 5.80516 6.37493 5.90054 6.37493 6V7.5H11.6249V6C11.6249 5.90054 11.6644 5.80516 11.7348 5.73484C11.8051 5.66451 11.9005 5.625 11.9999 5.625H13.1249C13.7217 5.625 14.294 5.86205 14.7159 6.28401C15.1379 6.70597 15.3749 7.27826 15.3749 7.875V10.5C15.3768 10.5162 15.3768 10.5326 15.3749 10.5487L14.6249 16.1737V19.125C14.6249 19.7217 14.3879 20.294 13.9659 20.716C13.544 21.1379 12.9717 21.375 12.3749 21.375ZM3.37493 10.5L4.12493 16.08C4.12651 16.095 4.12651 16.11 4.12493 16.125V19.125C4.12493 19.5228 4.28296 19.9044 4.56427 20.1857C4.84557 20.467 5.2271 20.625 5.62493 20.625H12.3749C12.7728 20.625 13.1543 20.467 13.4356 20.1857C13.7169 19.9044 13.8749 19.5228 13.8749 19.125V16.1475C13.8731 16.1313 13.8731 16.1149 13.8749 16.0988L14.6249 10.4738V7.875C14.6249 7.47718 14.4669 7.09564 14.1856 6.81434C13.9043 6.53304 13.5228 6.375 13.1249 6.375H12.3749V7.875C12.3749 7.97446 12.3354 8.06984 12.2651 8.14017C12.1948 8.21049 12.0994 8.25 11.9999 8.25H5.99993C5.90047 8.25 5.80509 8.21049 5.73476 8.14017C5.66444 8.06984 5.62493 7.97446 5.62493 7.875V6.375H4.87493C4.4771 6.375 4.09557 6.53304 3.81427 6.81434C3.53296 7.09564 3.37493 7.47718 3.37493 7.875V10.5Z" fill="#797979"/>
<path d="M12.75 8.25H5.25C5.15054 8.25 5.05516 8.21049 4.98484 8.14017C4.91451 8.06984 4.875 7.97446 4.875 7.875C4.875 7.77554 4.91451 7.68016 4.98484 7.60983C5.05516 7.53951 5.15054 7.5 5.25 7.5H12.75C12.8495 7.5 12.9448 7.53951 13.0152 7.60983C13.0855 7.68016 13.125 7.77554 13.125 7.875C13.125 7.97446 13.0855 8.06984 13.0152 8.14017C12.9448 8.21049 12.8495 8.25 12.75 8.25Z" fill="#797979"/>
<path d="M12.75 12.75H5.25C5.15054 12.75 5.05516 12.7105 4.98484 12.6402C4.91451 12.5698 4.875 12.4745 4.875 12.375V9.375C4.875 9.27554 4.91451 9.18016 4.98484 9.10983C5.05516 9.03951 5.15054 9 5.25 9H12.75C12.8495 9 12.9448 9.03951 13.0152 9.10983C13.0855 9.18016 13.125 9.27554 13.125 9.375V12.375C13.125 12.4745 13.0855 12.5698 13.0152 12.6402C12.9448 12.7105 12.8495 12.75 12.75 12.75ZM5.625 12H12.375V9.75H5.625V12Z" fill="#797979"/>
<path d="M9.375 13.875H8.625C8.41789 13.875 8.25 14.0429 8.25 14.25V14.625C8.25 14.8321 8.41789 15 8.625 15H9.375C9.58211 15 9.75 14.8321 9.75 14.625V14.25C9.75 14.0429 9.58211 13.875 9.375 13.875Z" fill="#797979"/>
<path d="M9.375 16.125H8.625C8.41789 16.125 8.25 16.2929 8.25 16.5V16.875C8.25 17.0821 8.41789 17.25 8.625 17.25H9.375C9.58211 17.25 9.75 17.0821 9.75 16.875V16.5C9.75 16.2929 9.58211 16.125 9.375 16.125Z" fill="#797979"/>
<path d="M9.375 18.375H8.625C8.41789 18.375 8.25 18.5429 8.25 18.75V19.125C8.25 19.3321 8.41789 19.5 8.625 19.5H9.375C9.58211 19.5 9.75 19.3321 9.75 19.125V18.75C9.75 18.5429 9.58211 18.375 9.375 18.375Z" fill="#797979"/>
<path d="M12 13.875H11.25C11.0429 13.875 10.875 14.0429 10.875 14.25V14.625C10.875 14.8321 11.0429 15 11.25 15H12C12.2071 15 12.375 14.8321 12.375 14.625V14.25C12.375 14.0429 12.2071 13.875 12 13.875Z" fill="#797979"/>
<path d="M12 16.125H11.25C11.0429 16.125 10.875 16.2929 10.875 16.5V16.875C10.875 17.0821 11.0429 17.25 11.25 17.25H12C12.2071 17.25 12.375 17.0821 12.375 16.875V16.5C12.375 16.2929 12.2071 16.125 12 16.125Z" fill="#797979"/>
<path d="M12 18.375H11.25C11.0429 18.375 10.875 18.5429 10.875 18.75V19.125C10.875 19.3321 11.0429 19.5 11.25 19.5H12C12.2071 19.5 12.375 19.3321 12.375 19.125V18.75C12.375 18.5429 12.2071 18.375 12 18.375Z" fill="#797979"/>
<path d="M6.75 13.875H6C5.79289 13.875 5.625 14.0429 5.625 14.25V14.625C5.625 14.8321 5.79289 15 6 15H6.75C6.95711 15 7.125 14.8321 7.125 14.625V14.25C7.125 14.0429 6.95711 13.875 6.75 13.875Z" fill="#797979"/>
<path d="M6.75 16.125H6C5.79289 16.125 5.625 16.2929 5.625 16.5V16.875C5.625 17.0821 5.79289 17.25 6 17.25H6.75C6.95711 17.25 7.125 17.0821 7.125 16.875V16.5C7.125 16.2929 6.95711 16.125 6.75 16.125Z" fill="#797979"/>
<path d="M6.75 18.375H6C5.79289 18.375 5.625 18.5429 5.625 18.75V19.125C5.625 19.3321 5.79289 19.5 6 19.5H6.75C6.95711 19.5 7.125 19.3321 7.125 19.125V18.75C7.125 18.5429 6.95711 18.375 6.75 18.375Z" fill="#797979"/>
<path d="M12 8.25017H6C5.90054 8.25017 5.80516 8.21066 5.73484 8.14034C5.66451 8.07001 5.625 7.97463 5.625 7.87517V3.00017C5.62537 2.92614 5.64765 2.85387 5.68902 2.79247C5.7304 2.73108 5.78902 2.6833 5.8575 2.65517C5.92579 2.62645 6.00106 2.61861 6.07381 2.63262C6.14655 2.64664 6.21352 2.68189 6.26625 2.73392C6.39603 2.85793 6.56862 2.92714 6.74813 2.92714C6.92763 2.92714 7.10022 2.85793 7.23 2.73392C7.26492 2.6982 7.30663 2.66983 7.35268 2.65045C7.39872 2.63107 7.44817 2.62109 7.49813 2.62109C7.54808 2.62109 7.59753 2.63107 7.64357 2.65045C7.68962 2.66983 7.73133 2.6982 7.76625 2.73392C7.82942 2.79807 7.90473 2.84901 7.98778 2.88378C8.07083 2.91854 8.15997 2.93644 8.25 2.93642C8.34013 2.93708 8.42945 2.91947 8.51259 2.88467C8.59573 2.84987 8.67097 2.79859 8.73375 2.73392C8.76861 2.69877 8.81009 2.67088 8.85578 2.65184C8.90148 2.6328 8.9505 2.623 9 2.623C9.0495 2.623 9.09852 2.6328 9.14422 2.65184C9.18991 2.67088 9.23139 2.69877 9.26625 2.73392C9.32999 2.79776 9.40569 2.8484 9.48901 2.88295C9.57234 2.91751 9.66167 2.93529 9.75187 2.93529C9.84208 2.93529 9.93141 2.91751 10.0147 2.88295C10.0981 2.8484 10.1738 2.79776 10.2375 2.73392C10.2724 2.69877 10.3138 2.67088 10.3595 2.65184C10.4052 2.6328 10.4542 2.623 10.5037 2.623C10.5533 2.623 10.6023 2.6328 10.648 2.65184C10.6937 2.67088 10.7351 2.69877 10.77 2.73392C10.8979 2.86147 11.0712 2.9331 11.2519 2.9331C11.4325 2.9331 11.6058 2.86147 11.7338 2.73392C11.7864 2.6805 11.8538 2.64409 11.9273 2.62938C12.0009 2.61468 12.0771 2.62235 12.1462 2.65142C12.2146 2.68038 12.2729 2.72898 12.3136 2.79106C12.3543 2.85315 12.3757 2.92593 12.375 3.00017V7.87517C12.375 7.97463 12.3355 8.07001 12.2652 8.14034C12.1948 8.21066 12.0995 8.25017 12 8.25017ZM6.375 7.50017H11.625V3.63767C11.4363 3.6883 11.2393 3.70012 11.046 3.6724C10.8526 3.64468 10.6669 3.57801 10.5 3.47642C10.2741 3.61424 10.0146 3.68715 9.75 3.68715C9.48539 3.68715 9.22589 3.61424 9 3.47642C8.7744 3.61506 8.51479 3.68845 8.25 3.68845C7.98521 3.68845 7.7256 3.61506 7.5 3.47642C7.33257 3.57662 7.14686 3.64248 6.95371 3.67017C6.76056 3.69785 6.56384 3.6868 6.375 3.63767V7.50017Z" fill="#797979"/>
<path d="M20.2499 17.25H14.2499C14.1505 17.25 14.0551 17.2105 13.9848 17.1402C13.9144 17.0698 13.8749 16.9745 13.8749 16.875V16.1475C13.8731 16.1313 13.8731 16.1149 13.8749 16.0988L14.6249 10.4738V10.125C14.6249 10.0255 14.6644 9.93016 14.7348 9.85983C14.8051 9.78951 14.9005 9.75 14.9999 9.75H20.2499C20.5483 9.75 20.8344 9.86853 21.0454 10.0795C21.2564 10.2905 21.3749 10.5766 21.3749 10.875V16.125C21.3749 16.4234 21.2564 16.7095 21.0454 16.9205C20.8344 17.1315 20.5483 17.25 20.2499 17.25ZM14.6249 16.5H20.2499C20.3494 16.5 20.4448 16.4605 20.5151 16.3902C20.5854 16.3198 20.6249 16.2245 20.6249 16.125V10.875C20.6249 10.7755 20.5854 10.6802 20.5151 10.6098C20.4448 10.5395 20.3494 10.5 20.2499 10.5H15.3749C15.3768 10.5162 15.3768 10.5326 15.3749 10.5487L14.6249 16.1738V16.5Z" fill="#797979"/>
<path d="M21 13.875H14.6025C14.5492 13.8749 14.4966 13.8635 14.4481 13.8416C14.3996 13.8196 14.3564 13.7875 14.3212 13.7475C14.286 13.7074 14.2597 13.6602 14.2442 13.6091C14.2287 13.558 14.2243 13.5042 14.2312 13.4513L14.43 11.9513C14.4419 11.8605 14.4866 11.7772 14.5557 11.7171C14.6247 11.657 14.7134 11.6242 14.805 11.625H21C21.0994 11.625 21.1948 11.6645 21.2651 11.7348C21.3355 11.8052 21.375 11.9006 21.375 12V13.5C21.375 13.5995 21.3355 13.6949 21.2651 13.7652C21.1948 13.8355 21.0994 13.875 21 13.875ZM15.03 13.125H20.625V12.375H15.1312L15.03 13.125Z" fill="#797979"/>
<path d="M19.125 15.75H17.625C17.5255 15.75 17.4302 15.7105 17.3598 15.6402C17.2895 15.5698 17.25 15.4745 17.25 15.375C17.25 15.2755 17.2895 15.1802 17.3598 15.1098C17.4302 15.0395 17.5255 15 17.625 15H19.125C19.2245 15 19.3198 15.0395 19.3902 15.1098C19.4605 15.1802 19.5 15.2755 19.5 15.375C19.5 15.4745 19.4605 15.5698 19.3902 15.6402C19.3198 15.7105 19.2245 15.75 19.125 15.75Z" fill="#797979"/>
</svg>
