<svg width="24" height="24" viewBox="0 0 24 24" fill="none" xmlns="http://www.w3.org/2000/svg">
<path d="M19.4999 15.8008H17.4999C17.4999 14.6008 16.6999 13.5008 15.5999 13.1008L9.3999 10.8008H1.3999V21.8008H7.3999V20.4008L14.3999 22.3008L22.3999 19.8008V18.8008C22.4999 17.1008 21.1999 15.8008 19.4999 15.8008ZM3.4999 19.8008V12.8008H5.4999V19.8008H3.4999ZM14.4999 20.2008L7.4999 18.3008V12.8008H9.0999L14.8999 15.0008C15.1999 15.1008 15.4999 15.5008 15.4999 15.8008C15.4999 15.8008 13.4999 15.7008 13.1999 15.7008L10.7999 14.9008L10.1999 16.8008L12.5999 17.6008C13.0999 17.8008 13.5999 17.9008 14.1999 17.9008H19.5999C19.9999 17.9008 20.2999 18.1008 20.4999 18.5008L14.4999 20.2008Z" fill="#BFBFBF"/>
<path d="M17.1999 12.0004C14.2999 12.0004 11.8999 9.60039 11.8999 6.70039C11.8999 3.80039 14.2999 1.40039 17.1999 1.40039C20.0999 1.40039 22.4999 3.80039 22.4999 6.70039C22.4999 9.60039 20.0999 12.0004 17.1999 12.0004ZM17.1999 3.40039C15.3999 3.40039 13.8999 4.90039 13.8999 6.70039C13.8999 8.50039 15.3999 10.0004 17.1999 10.0004C18.9999 10.0004 20.4999 8.50039 20.4999 6.70039C20.4999 4.90039 18.9999 3.40039 17.1999 3.40039Z" fill="#BFBFBF"/>
</svg>
