<svg width="24" height="24" viewBox="0 0 24 24" fill="none" xmlns="http://www.w3.org/2000/svg">
<path d="M12.5999 10.7992C10.7999 10.2992 10.2999 9.89922 10.2999 9.09922C10.2999 8.29922 11.0999 7.69922 12.3999 7.69922C13.7999 7.69922 14.2999 8.39922 14.2999 9.29922H15.9999C15.9999 7.99922 15.0999 6.69922 13.4999 6.29922V4.69922H11.1999V6.39922C9.6999 6.69922 8.4999 7.69922 8.4999 9.19922C8.4999 10.9992 9.9999 11.8992 12.1999 12.3992C14.0999 12.8992 14.4999 13.4992 14.4999 14.2992C14.4999 14.7992 14.0999 15.6992 12.3999 15.6992C10.7999 15.6992 10.1999 14.9992 10.0999 14.0992H8.3999C8.4999 15.7992 9.7999 16.7992 11.2999 17.0992V18.7992H13.5999V16.9992C15.0999 16.6992 16.2999 15.7992 16.2999 14.1992C16.2999 12.0992 14.3999 11.2992 12.5999 10.7992Z" fill="#BFBFBF"/>
<path d="M20.7999 14.8002C19.9999 17.1002 18.2999 18.8002 16.0999 19.9002C13.8999 20.9002 11.4999 21.0002 9.19993 20.2002C6.89993 19.4002 5.19993 17.7002 4.09993 15.5002C2.99993 13.3002 2.99993 10.8002 3.89993 8.60023C5.59993 3.90023 10.7999 1.60023 15.4999 3.30023C16.9999 3.80023 18.1999 4.80023 19.1999 5.90023L18.1999 6.70023L21.8999 7.80023L21.6999 4.00023L20.7999 4.70023C19.5999 3.20023 17.9999 2.10023 16.1999 1.40023C10.3999 -0.69977 4.09993 2.20023 1.99993 7.90023C0.999933 10.7002 1.09993 13.6002 2.29993 16.3002C3.59993 19.0002 5.79993 21.0002 8.49993 22.0002C9.69993 22.5002 10.9999 22.7002 12.2999 22.7002C13.8999 22.7002 15.3999 22.4002 16.8999 21.7002C19.5999 20.5002 21.5999 18.3002 22.5999 15.5002L20.7999 14.8002Z" fill="#BFBFBF"/>
</svg>
