<svg width="24" height="24" viewBox="0 0 24 24" fill="none" xmlns="http://www.w3.org/2000/svg">
<path d="M11.7272 9.80924V10.0909C11.7272 10.1632 11.7559 10.2326 11.807 10.2838C11.8582 10.3349 11.9276 10.3636 11.9999 10.3636C12.0722 10.3636 12.1416 10.3349 12.1927 10.2838C12.2439 10.2326 12.2726 10.1632 12.2726 10.0909V9.80924C12.4791 9.78955 12.6726 9.69944 12.8206 9.55401C12.9685 9.40859 13.0619 9.2167 13.0852 9.01055C13.1084 8.80441 13.06 8.59654 12.9482 8.42183C12.8363 8.24712 12.6677 8.1162 12.4708 8.05105L12.2726 7.98513V7.10883C12.3498 7.1275 12.4186 7.17141 12.468 7.23359C12.5174 7.29576 12.5446 7.37265 12.5454 7.45205V7.63636C12.5454 7.7087 12.5741 7.77806 12.6252 7.82921C12.6764 7.88036 12.7457 7.90909 12.8181 7.90909C12.8904 7.90909 12.9598 7.88036 13.0109 7.82921C13.0621 7.77806 13.0908 7.7087 13.0908 7.63636V7.45205C13.0901 7.22759 13.006 7.0114 12.8548 6.84551C12.7035 6.67961 12.4961 6.57586 12.2726 6.5544V6.27273C12.2726 6.2004 12.2439 6.13103 12.1927 6.07988C12.1416 6.02873 12.0722 6 11.9999 6C11.9276 6 11.8582 6.02873 11.807 6.07988C11.7559 6.13103 11.7272 6.2004 11.7272 6.27273V6.5544C11.5207 6.57408 11.3272 6.6642 11.1792 6.80962C11.0313 6.95505 10.9379 7.14693 10.9146 7.35308C10.8914 7.55923 10.9398 7.7671 11.0516 7.94181C11.1635 8.11651 11.3321 8.24743 11.529 8.31259L11.7272 8.37854V9.25481C11.65 9.23615 11.5812 9.19225 11.5318 9.13007C11.4824 9.06789 11.4552 8.991 11.4544 8.91158V8.72727C11.4544 8.65494 11.4257 8.58557 11.3746 8.53443C11.3234 8.48328 11.254 8.45455 11.1817 8.45455C11.1094 8.45455 11.04 8.48328 10.9889 8.53443C10.9377 8.58557 10.909 8.65494 10.909 8.72727V8.91158C10.9097 9.13604 10.9939 9.35222 11.1451 9.51811C11.2963 9.684 11.5037 9.78776 11.7272 9.80924ZM12.2726 8.56015L12.2982 8.56865C12.3702 8.59261 12.4328 8.63863 12.4772 8.70019C12.5215 8.76174 12.5454 8.83571 12.5454 8.91158C12.5446 8.99099 12.5174 9.06788 12.468 9.13005C12.4186 9.19223 12.3498 9.23613 12.2726 9.25481V8.56015ZM11.7015 7.79509C11.6295 7.77113 11.5669 7.72508 11.5225 7.6635C11.4782 7.60193 11.4543 7.52794 11.4544 7.45205C11.4552 7.37264 11.4824 7.29575 11.5318 7.23357C11.5812 7.17139 11.65 7.12749 11.7272 7.10883V7.80365L11.7015 7.79509Z" fill="#797979"/>
<path d="M23.4545 1.63672H0.545432C0.473101 1.63672 0.403731 1.66545 0.352585 1.7166C0.301439 1.76775 0.272705 1.83711 0.272705 1.90945V6.81854C0.272705 6.89087 0.301439 6.96024 0.352585 7.01138C0.403731 7.06253 0.473101 7.09126 0.545432 7.09126H3.81816V12.8185C3.81816 12.8909 3.84689 12.9602 3.89804 13.0114C3.94919 13.0625 4.01855 13.0913 4.09089 13.0913H6.54543V13.9755C6.54533 14.7022 6.8091 15.4043 7.28771 15.9512L8.12627 16.9094H7.36361C7.29128 16.9094 7.22191 16.9382 7.17077 16.9893C7.11962 17.0405 7.09089 17.1098 7.09089 17.1822V19.364C7.09089 19.4363 7.11962 19.5057 7.17077 19.5568C7.22191 19.608 7.29128 19.6367 7.36361 19.6367H7.90907V22.0913C7.90907 22.1636 7.9378 22.233 7.98895 22.2841C8.04009 22.3353 8.10946 22.364 8.1818 22.364C8.25413 22.364 8.3235 22.3353 8.37464 22.2841C8.42579 22.233 8.45452 22.1636 8.45452 22.0913V19.6367H16.0909V22.0913C16.0909 22.1636 16.1196 22.233 16.1708 22.2841C16.2219 22.3353 16.2913 22.364 16.3636 22.364C16.4359 22.364 16.5053 22.3353 16.5565 22.2841C16.6076 22.233 16.6363 22.1636 16.6363 22.0913V19.6367H17.1818C17.2541 19.6367 17.3235 19.608 17.3746 19.5568C17.4258 19.5057 17.4545 19.4363 17.4545 19.364V17.1822C17.4545 17.1098 17.4258 17.0405 17.3746 16.9893C17.3235 16.9382 17.2541 16.9094 17.1818 16.9094H16.0909V15.4055C16.4312 15.1233 16.7053 14.7697 16.8939 14.3698C17.0824 13.9698 17.1807 13.5334 17.1818 13.0913H19.9091C19.9814 13.0913 20.0508 13.0625 20.1019 13.0114C20.1531 12.9602 20.1818 12.8909 20.1818 12.8185V7.09126H23.4545C23.5269 7.09126 23.5962 7.06253 23.6474 7.01138C23.6985 6.96024 23.7272 6.89087 23.7272 6.81854V1.90945C23.7272 1.83711 23.6985 1.76775 23.6474 1.7166C23.5962 1.66545 23.5269 1.63672 23.4545 1.63672ZM3.81816 4.90945H2.99998C2.85531 4.90945 2.71658 4.85198 2.61428 4.74969C2.51199 4.64739 2.45452 4.50866 2.45452 4.36399C2.45452 4.21933 2.51199 4.08059 2.61428 3.9783C2.71658 3.876 2.85531 3.81854 2.99998 3.81854H3.81816V4.90945ZM6.54543 9.27308V10.2362C6.31554 10.0298 6.03184 9.89283 5.72725 9.84117V6.52317C6.06207 6.46595 6.37088 6.30622 6.61105 6.06602C6.85122 5.82582 7.01093 5.517 7.06811 5.18217H16.9317C16.9889 5.517 17.1487 5.82581 17.3889 6.066C17.6291 6.3062 17.9379 6.46593 18.2727 6.52317V9.84117C17.9379 9.89842 17.6291 10.0582 17.3889 10.2983C17.1487 10.5385 16.9889 10.8473 16.9317 11.1822H9.2727V9.27308C9.2727 8.91142 9.12904 8.56458 8.8733 8.30885C8.61757 8.05311 8.27073 7.90945 7.90907 7.90945C7.54741 7.90945 7.20056 8.05311 6.94483 8.30885C6.6891 8.56458 6.54543 8.91142 6.54543 9.27308ZM16.9091 17.4549V19.0913H7.63634V17.4549H16.9091ZM15.6544 15.0549C15.6205 15.0803 15.5931 15.1133 15.5742 15.1512C15.5553 15.189 15.5454 15.2308 15.5454 15.2731V16.9094H8.8509L7.69828 15.5922C7.30668 15.1446 7.09085 14.5702 7.09089 13.9755V9.27308C7.09089 9.05609 7.17709 8.84798 7.33053 8.69454C7.48396 8.5411 7.69207 8.4549 7.90907 8.4549C8.12606 8.4549 8.33417 8.5411 8.48761 8.69454C8.64105 8.84798 8.72725 9.05609 8.72725 9.27308V12.5458C8.72725 12.6181 8.75598 12.6875 8.80713 12.7387C8.85828 12.7898 8.92765 12.8185 8.99998 12.8185C9.33989 12.8206 9.67477 12.9008 9.97869 13.0531C10.3399 13.2344 10.6436 13.5125 10.856 13.8563C11.0685 14.2001 11.1812 14.5962 11.1818 15.0004V15.2731C11.1818 15.3454 11.2105 15.4148 11.2617 15.4659C11.3128 15.5171 11.3822 15.5458 11.4545 15.5458C11.5269 15.5458 11.5962 15.5171 11.6474 15.4659C11.6985 15.4148 11.7272 15.3454 11.7272 15.2731V15.0004C11.727 14.2854 11.4449 13.5995 10.9421 13.0913H16.6363C16.6354 13.4722 16.5463 13.8477 16.3759 14.1884C16.2055 14.5291 15.9586 14.8256 15.6544 15.0549ZM19.6363 12.5458H10.1856C9.89797 12.4089 9.58937 12.3213 9.2727 12.2867V11.7276H17.1818C17.2541 11.7276 17.3235 11.6989 17.3746 11.6477C17.4258 11.5966 17.4545 11.5272 17.4545 11.4549C17.4548 11.1657 17.5698 10.8883 17.7744 10.6838C17.9789 10.4793 18.2562 10.3643 18.5454 10.364C18.6178 10.364 18.6871 10.3353 18.7383 10.2841C18.7894 10.233 18.8182 10.1636 18.8182 10.0913V6.27308C18.8182 6.20075 18.7894 6.13138 18.7383 6.08024C18.6871 6.02909 18.6178 6.00036 18.5454 6.00036C18.2562 6.00007 17.9789 5.88505 17.7744 5.68052C17.5698 5.476 17.4548 5.19869 17.4545 4.90945C17.4545 4.83711 17.4258 4.76774 17.3746 4.7166C17.3235 4.66545 17.2541 4.63672 17.1818 4.63672H6.81816C6.74583 4.63672 6.67646 4.66545 6.62531 4.7166C6.57417 4.76774 6.54543 4.83711 6.54543 4.90945C6.54513 5.19868 6.4301 5.47598 6.22558 5.6805C6.02106 5.88502 5.74376 6.00005 5.45452 6.00036C5.38219 6.00036 5.31282 6.02909 5.26168 6.08024C5.21053 6.13138 5.1818 6.20075 5.1818 6.27308V10.0913C5.1818 10.1636 5.21053 10.233 5.26168 10.2841C5.31282 10.3353 5.38219 10.364 5.45452 10.364C5.74376 10.3643 6.02106 10.4793 6.22558 10.6838C6.4301 10.8884 6.54513 11.1657 6.54543 11.4549V12.5458H4.36361V3.81854H19.6363V12.5458ZM23.1818 6.54581H20.1818V5.4549H21C21.2893 5.4549 21.5668 5.33997 21.7714 5.13538C21.976 4.9308 22.0909 4.65332 22.0909 4.36399C22.0909 4.07466 21.976 3.79719 21.7714 3.5926C21.5668 3.38802 21.2893 3.27308 21 3.27308H2.99998C2.71065 3.27308 2.43317 3.38802 2.22859 3.5926C2.024 3.79719 1.90907 4.07466 1.90907 4.36399C1.90907 4.65332 2.024 4.9308 2.22859 5.13538C2.43317 5.33997 2.71065 5.4549 2.99998 5.4549H3.81816V6.54581H0.81816V2.18217H23.1818V6.54581ZM20.1818 4.90945V3.81854H21C21.1446 3.81854 21.2834 3.876 21.3857 3.9783C21.488 4.08059 21.5454 4.21933 21.5454 4.36399C21.5454 4.50866 21.488 4.64739 21.3857 4.74969C21.2834 4.85198 21.1446 4.90945 21 4.90945H20.1818Z" fill="#797979"/>
</svg>
